# Blender v2.79 (sub 0) OBJ File: ''
# www.blender.org
mtllib green_bottle.mtl
o small_health_poti.001_Cylinder.006
v 0.301118 0.048592 -0.166684
v 0.361639 0.048592 -0.141615
v 0.361639 0.030085 -0.141615
v 0.301118 0.030085 -0.166684
v 0.240598 0.048592 -0.141615
v 0.240598 0.030085 -0.141615
v 0.215530 0.048592 -0.081095
v 0.215530 0.030085 -0.081095
v 0.240598 0.048592 -0.020575
v 0.240598 0.030085 -0.020575
v 0.301119 0.048592 0.004493
v 0.301119 0.030085 0.004493
v 0.361639 0.048592 -0.020575
v 0.361639 0.030085 -0.020575
v 0.386707 0.048592 -0.081095
v 0.386707 0.030085 -0.081095
v 0.301119 0.030085 -0.081095
v 0.361639 0.030085 -0.141615
v 0.386707 0.030085 -0.081095
v 0.361639 0.030085 -0.020575
v 0.301119 0.030085 0.004493
v 0.240598 0.030085 -0.020575
v 0.215530 0.030085 -0.081095
v 0.240598 0.030085 -0.141615
v 0.301118 0.030085 -0.166684
v 0.333865 0.472678 -0.113841
v 0.301119 0.472678 -0.127405
v 0.268372 0.472678 -0.113841
v 0.254808 0.472678 -0.081095
v 0.347429 0.472678 -0.081095
v 0.268372 0.472678 -0.048349
v 0.333865 0.472678 -0.048349
v 0.301119 0.472678 -0.034785
v 0.301119 0.419549 -0.122608
v 0.301119 0.462052 -0.131876
v 0.337026 0.462052 -0.117002
v 0.330473 0.419549 -0.110450
v 0.301119 0.472678 -0.127405
v 0.333865 0.472678 -0.113841
v 0.271764 0.419549 -0.110450
v 0.265211 0.462052 -0.117002
v 0.268372 0.472678 -0.113841
v 0.259605 0.419549 -0.081095
v 0.250338 0.462052 -0.081095
v 0.254808 0.472678 -0.081095
v 0.271764 0.419549 -0.051741
v 0.265211 0.462052 -0.045188
v 0.268372 0.472678 -0.048349
v 0.301119 0.419549 -0.039582
v 0.301119 0.462052 -0.030315
v 0.301119 0.472678 -0.034785
v 0.330473 0.419549 -0.051741
v 0.337026 0.462052 -0.045188
v 0.333865 0.472678 -0.048349
v 0.342632 0.419549 -0.081095
v 0.351899 0.462052 -0.081095
v 0.347429 0.472678 -0.081095
v 0.381686 0.078417 -0.161663
v 0.415059 0.078417 -0.081095
v 0.381687 0.078417 -0.000527
v 0.301119 0.078417 0.032845
v 0.220551 0.078417 -0.000527
v 0.187178 0.078417 -0.081095
v 0.220551 0.078417 -0.161663
v 0.301119 0.078417 -0.195036
v 0.301119 0.128646 -0.212754
v 0.394215 0.128646 -0.174192
v 0.208022 0.128646 -0.174192
v 0.169460 0.128646 -0.081095
v 0.208022 0.128646 0.012002
v 0.301119 0.128646 0.050564
v 0.394215 0.128646 0.012002
v 0.432777 0.128646 -0.081095
v 0.395839 0.211761 -0.175816
v 0.301119 0.211761 -0.215050
v 0.301119 0.268103 -0.152898
v 0.351891 0.268103 -0.131868
v 0.206398 0.211761 -0.175816
v 0.250346 0.268103 -0.131868
v 0.167163 0.211761 -0.081095
v 0.229316 0.268103 -0.081095
v 0.206398 0.211761 0.013625
v 0.250346 0.268103 -0.030323
v 0.301118 0.211761 0.052860
v 0.301119 0.268103 -0.009292
v 0.395839 0.211761 0.013625
v 0.351891 0.268103 -0.030323
v 0.435074 0.211761 -0.081095
v 0.372921 0.268103 -0.081095
v 0.335066 0.331434 -0.115043
v 0.349128 0.331434 -0.081095
v 0.335067 0.331434 -0.047147
v 0.301119 0.331434 -0.033086
v 0.267171 0.331434 -0.047147
v 0.253109 0.331434 -0.081095
v 0.267171 0.331434 -0.115043
v 0.301119 0.331434 -0.129105
v 0.301119 0.414290 -0.136829
v 0.340529 0.414290 -0.120505
v 0.261709 0.414290 -0.120505
v 0.245384 0.414290 -0.081095
v 0.261708 0.414290 -0.041685
v 0.301119 0.414290 -0.025361
v 0.340529 0.414290 -0.041685
v 0.356853 0.414290 -0.081095
v 0.340529 0.414290 -0.120505
v 0.301119 0.414290 -0.136829
v 0.301119 0.419549 -0.122608
v 0.330473 0.419549 -0.110450
v 0.261709 0.414290 -0.120505
v 0.271764 0.419549 -0.110450
v 0.245384 0.414290 -0.081095
v 0.259605 0.419549 -0.081095
v 0.261708 0.414290 -0.041685
v 0.271764 0.419549 -0.051741
v 0.301119 0.414290 -0.025361
v 0.301119 0.419549 -0.039582
v 0.340529 0.414290 -0.041685
v 0.330473 0.419549 -0.051741
v 0.356853 0.414290 -0.081095
v 0.342632 0.419549 -0.081095
v 0.398216 0.170619 -0.178192
v 0.438435 0.170619 -0.081095
v 0.398216 0.170619 0.016002
v 0.301118 0.170619 0.056221
v 0.204021 0.170619 0.016002
v 0.163802 0.170619 -0.081095
v 0.204021 0.170619 -0.178193
v 0.301119 0.170619 -0.218411
vt 0.464792 0.108516
vt 0.464792 0.181599
vt 0.391577 0.181599
vt 0.391577 0.108516
vt 0.318363 0.181599
vt 0.318363 0.108516
vt 0.245149 0.181599
vt 0.245149 0.108516
vt 0.171934 0.181599
vt 0.171934 0.108516
vt 0.098720 0.181599
vt 0.098720 0.108516
vt 0.025505 0.181599
vt 0.025505 0.108516
vt 0.611221 0.108516
vt 0.611221 0.181599
vt 0.538006 0.181599
vt 0.538006 0.108516
vt 0.538006 0.230405
vt 0.464792 0.230405
vt 0.611221 0.230405
vt 0.098720 0.230405
vt 0.025505 0.230405
vt 0.171934 0.230405
vt 0.245149 0.230405
vt 0.318363 0.230405
vt 0.391577 0.230405
vt 0.464792 0.328920
vt 0.538006 0.328920
vt 0.538006 0.422705
vt 0.464792 0.422705
vt 0.611221 0.328920
vt 0.611221 0.422705
vt 0.025505 0.328920
vt 0.098720 0.328920
vt 0.098720 0.422705
vt 0.025505 0.422705
vt 0.171934 0.328920
vt 0.171934 0.422705
vt 0.245149 0.328920
vt 0.245149 0.422705
vt 0.318363 0.328920
vt 0.318363 0.422705
vt 0.391577 0.328920
vt 0.391577 0.422705
vt 0.433094 0.448732
vt 0.515428 0.448732
vt 0.516954 0.463704
vt 0.434620 0.463704
vt 0.350760 0.448732
vt 0.352286 0.463704
vt 0.268427 0.448732
vt 0.269953 0.463704
vt 0.186093 0.448732
vt 0.187619 0.463704
vt 0.103759 0.448732
vt 0.105285 0.463704
vt 0.021425 0.448732
vt 0.022951 0.463704
vt 0.597762 0.448732
vt 0.680096 0.448732
vt 0.681621 0.463704
vt 0.599288 0.463704
vt 0.599288 0.614277
vt 0.516954 0.614277
vt 0.681621 0.614277
vt 0.105285 0.614277
vt 0.022951 0.614277
vt 0.187619 0.614277
vt 0.269953 0.614277
vt 0.352286 0.614277
vt 0.434620 0.614277
vt 0.516954 0.614277
vt 0.599288 0.614277
vt 0.599288 0.625114
vt 0.516954 0.625114
vt 0.681621 0.614277
vt 0.681621 0.625114
vt 0.022951 0.614277
vt 0.105285 0.614277
vt 0.105285 0.625114
vt 0.022951 0.625114
vt 0.187619 0.614277
vt 0.187619 0.625114
vt 0.269953 0.614277
vt 0.269953 0.625114
vt 0.352286 0.614277
vt 0.352286 0.625114
vt 0.434620 0.614277
vt 0.434620 0.625114
vt 0.464792 0.279662
vt 0.391577 0.279662
vt 0.318363 0.279662
vt 0.245149 0.279662
vt 0.171934 0.279662
vt 0.098720 0.279662
vt 0.025505 0.279662
vt 0.611221 0.279662
vt 0.538006 0.279662
vt 0.447222 0.788684
vt 0.397514 0.788684
vt 0.397514 0.759571
vt 0.447222 0.759571
vt 0.099267 0.788684
vt 0.049559 0.788684
vt 0.049559 0.759571
vt 0.099267 0.759571
vt 0.148975 0.788684
vt 0.148975 0.759571
vt 0.198683 0.788684
vt 0.198683 0.759571
vt 0.248391 0.788684
vt 0.248391 0.759571
vt 0.298099 0.788684
vt 0.298099 0.759571
vt 0.347806 0.788684
vt 0.347806 0.759571
vt 0.495453 0.759571
vt 0.397514 0.759571
vt 0.347806 0.759571
vt 0.298099 0.759571
vt 0.248391 0.759571
vt 0.097790 0.759571
vt 0.198683 0.759571
vt 0.148975 0.759571
vt 0.099267 0.759571
vt 0.049559 0.759571
vt 0.447222 0.759571
vt 0.783713 0.661033
vt 0.872116 0.749436
vt 0.872116 0.874458
vt 0.783712 0.962861
vt 0.658691 0.661033
vt 0.658691 0.962861
vt 0.570287 0.749436
vt 0.570287 0.874458
vt 0.397758 0.727786
vt 0.397758 0.859020
vt 0.348221 0.859020
vt 0.348221 0.727786
vt 0.397758 0.990255
vt 0.348221 0.990255
vt 0.447295 0.727786
vt 0.447295 0.859020
vt 0.447295 0.990255
vt 0.100536 0.727786
vt 0.100536 0.859020
vt 0.051000 0.859020
vt 0.051000 0.727786
vt 0.100537 0.990255
vt 0.051000 0.990255
vt 0.150073 0.727786
vt 0.150073 0.859020
vt 0.150073 0.990255
vt 0.199610 0.727786
vt 0.199610 0.859020
vt 0.199610 0.990255
vt 0.249147 0.727786
vt 0.249147 0.859020
vt 0.249147 0.990254
vt 0.298684 0.727786
vt 0.298684 0.859020
vt 0.298684 0.990255
vn 0.6461 -0.4063 -0.6461
vn 0.6121 -0.5008 -0.6121
vn 0.8656 -0.5008 -0.0000
vn 0.9137 -0.4063 -0.0000
vn 0.6121 -0.5008 0.6121
vn 0.6461 -0.4063 0.6461
vn 0.0000 -0.5008 0.8656
vn 0.0000 -0.4063 0.9137
vn -0.6121 -0.5008 0.6121
vn -0.6461 -0.4063 0.6461
vn -0.8656 -0.5008 -0.0000
vn -0.9137 -0.4063 -0.0000
vn -0.6121 -0.5008 -0.6121
vn -0.6461 -0.4063 -0.6461
vn 0.0000 -0.5008 -0.8656
vn -0.0000 -0.4063 -0.9137
vn 0.0000 -0.2289 -0.9735
vn 0.6883 -0.2289 -0.6883
vn -0.6883 -0.2289 -0.6883
vn -0.9735 -0.2289 0.0000
vn -0.6883 -0.2289 0.6883
vn 0.0000 -0.2289 0.9735
vn 0.6883 -0.2289 0.6883
vn 0.9735 -0.2289 -0.0000
vn 0.6450 0.4100 -0.6450
vn 0.0000 0.4100 -0.9121
vn 0.0000 0.5906 -0.8070
vn 0.5706 0.5906 -0.5706
vn -0.6449 0.4100 -0.6450
vn -0.5706 0.5906 -0.5706
vn -0.9121 0.4100 0.0000
vn -0.8070 0.5906 0.0000
vn -0.6450 0.4100 0.6450
vn -0.5706 0.5906 0.5706
vn -0.0000 0.4100 0.9121
vn 0.0000 0.5906 0.8070
vn 0.6450 0.4100 0.6450
vn 0.5706 0.5906 0.5706
vn 0.9121 0.4100 0.0000
vn 0.8070 0.5906 0.0000
vn 0.7001 0.1406 -0.7001
vn 0.9901 0.1406 -0.0000
vn 0.7001 0.1406 0.7001
vn 0.0000 0.1406 0.9901
vn -0.7001 0.1406 0.7001
vn -0.9901 0.1406 -0.0000
vn -0.7001 0.1406 -0.7001
vn 0.0000 0.1406 -0.9901
vn 0.0000 -0.0928 -0.9957
vn 0.7041 -0.0928 -0.7041
vn -0.7040 -0.0928 -0.7041
vn -0.9957 -0.0928 -0.0000
vn -0.7040 -0.0928 0.7041
vn 0.0000 -0.0928 0.9957
vn 0.7041 -0.0928 0.7041
vn 0.9957 -0.0928 -0.0000
vn 0.2453 0.9379 -0.2453
vn 0.0000 0.9379 -0.3469
vn -0.2453 0.9379 -0.2453
vn -0.3469 0.9379 -0.0000
vn -0.2453 0.9379 0.2453
vn 0.0000 0.9379 0.3468
vn 0.2453 0.9379 0.2453
vn 0.3468 0.9379 0.0000
vn 0.7069 -0.0256 -0.7069
vn 0.9997 -0.0256 0.0000
vn 0.7069 -0.0256 0.7069
vn -0.0000 -0.0256 0.9997
vn -0.7069 -0.0256 0.7069
vn -0.9997 -0.0256 0.0000
vn -0.7069 -0.0256 -0.7069
vn 0.0000 -0.0256 -0.9997
vn 0.7071 0.0000 -0.7071
vn -0.0000 0.0000 -1.0000
vn -0.7071 0.0000 -0.7071
vn -1.0000 0.0000 0.0000
vn -0.7071 -0.0000 0.7071
vn 0.0000 -0.0000 1.0000
vn 0.7071 0.0000 0.7071
vn 1.0000 0.0000 0.0000
vn -0.0000 -1.0000 -0.0000
vn 0.0000 1.0000 0.0000
vn 0.0000 -0.2130 -0.9770
vn 0.0000 0.0856 -0.9963
vn 0.7045 0.0856 -0.7045
vn 0.6909 -0.2130 -0.6909
vn 0.0000 0.3878 -0.9217
vn 0.6518 0.3878 -0.6518
vn -0.6909 -0.2130 -0.6909
vn -0.7045 0.0856 -0.7045
vn -0.6518 0.3878 -0.6518
vn -0.9770 -0.2130 0.0000
vn -0.9963 0.0856 0.0000
vn -0.9218 0.3878 -0.0000
vn -0.6909 -0.2130 0.6909
vn -0.7045 0.0856 0.7045
vn -0.6518 0.3878 0.6518
vn 0.0000 -0.2130 0.9770
vn 0.0000 0.0856 0.9963
vn 0.0000 0.3878 0.9218
vn 0.6909 -0.2130 0.6909
vn 0.7045 0.0856 0.7045
vn 0.6518 0.3878 0.6518
vn 0.9770 -0.2130 0.0000
vn 0.9963 0.0856 0.0000
vn 0.9218 0.3878 0.0000
usemtl Material.003
s 1
f 2/1/1 58/2/2 59/3/3 15/4/4
f 15/4/4 59/3/3 60/5/5 13/6/6
f 13/6/6 60/5/5 61/7/7 11/8/8
f 11/8/8 61/7/7 62/9/9 9/10/10
f 9/10/10 62/9/9 63/11/11 7/12/12
f 7/12/12 63/11/11 64/13/13 5/14/14
f 5/15/14 64/16/13 65/17/15 1/18/16
f 58/2/2 2/1/1 1/18/16 65/17/15
f 58/2/2 65/17/15 66/19/17 67/20/18
f 65/17/15 64/16/13 68/21/19 66/19/17
f 64/13/13 63/11/11 69/22/20 68/23/19
f 63/11/11 62/9/9 70/24/21 69/22/20
f 62/9/9 61/7/7 71/25/22 70/24/21
f 61/7/7 60/5/5 72/26/23 71/25/22
f 60/5/5 59/3/3 73/27/24 72/26/23
f 59/3/3 58/2/2 67/20/18 73/27/24
f 74/28/25 75/29/26 76/30/27 77/31/28
f 75/29/26 78/32/29 79/33/30 76/30/27
f 78/34/29 80/35/31 81/36/32 79/37/30
f 80/35/31 82/38/33 83/39/34 81/36/32
f 82/38/33 84/40/35 85/41/36 83/39/34
f 84/40/35 86/42/37 87/43/38 85/41/36
f 86/42/37 88/44/39 89/45/40 87/43/38
f 88/44/39 74/28/25 77/31/28 89/45/40
f 89/46/40 77/47/28 90/48/41 91/49/42
f 87/50/38 89/46/40 91/49/42 92/51/43
f 85/52/36 87/50/38 92/51/43 93/53/44
f 83/54/34 85/52/36 93/53/44 94/55/45
f 81/56/32 83/54/34 94/55/45 95/57/46
f 79/58/30 81/56/32 95/57/46 96/59/47
f 76/60/27 79/61/30 96/62/47 97/63/48
f 77/47/28 76/60/27 97/63/48 90/48/41
f 90/48/41 97/63/48 98/64/49 99/65/50
f 97/63/48 96/62/47 100/66/51 98/64/49
f 96/59/47 95/57/46 101/67/52 100/68/51
f 95/57/46 94/55/45 102/69/53 101/67/52
f 94/55/45 93/53/44 103/70/54 102/69/53
f 93/53/44 92/51/43 104/71/55 103/70/54
f 92/51/43 91/49/42 105/72/56 104/71/55
f 91/49/42 90/48/41 99/65/50 105/72/56
f 106/73/57 107/74/58 108/75/58 109/76/57
f 107/74/58 110/77/59 111/78/59 108/75/58
f 110/79/59 112/80/60 113/81/60 111/82/59
f 112/80/60 114/83/61 115/84/61 113/81/60
f 114/83/61 116/85/62 117/86/62 115/84/61
f 116/85/62 118/87/63 119/88/63 117/86/62
f 118/87/63 120/89/64 121/90/64 119/88/63
f 120/89/64 106/73/57 109/76/57 121/90/64
f 67/20/18 122/91/65 123/92/66 73/27/24
f 122/91/65 74/28/25 88/44/39 123/92/66
f 73/27/24 123/92/66 124/93/67 72/26/23
f 123/92/66 88/44/39 86/42/37 124/93/67
f 72/26/23 124/93/67 125/94/68 71/25/22
f 124/93/67 86/42/37 84/40/35 125/94/68
f 71/25/22 125/94/68 126/95/69 70/24/21
f 125/94/68 84/40/35 82/38/33 126/95/69
f 70/24/21 126/95/69 127/96/70 69/22/20
f 126/95/69 82/38/33 80/35/31 127/96/70
f 69/22/20 127/96/70 128/97/71 68/23/19
f 127/96/70 80/35/31 78/34/29 128/97/71
f 68/21/19 128/98/71 129/99/72 66/19/17
f 128/98/71 78/32/29 75/29/26 129/99/72
f 66/19/17 129/99/72 122/91/65 67/20/18
f 129/99/72 75/29/26 74/28/25 122/91/65
usemtl Material.003_NONE
f 1/100/16 2/101/1 3/102/73 4/103/74
f 5/104/14 1/105/16 4/106/74 6/107/75
f 7/108/12 5/104/14 6/107/75 8/109/76
f 9/110/10 7/108/12 8/109/76 10/111/77
f 11/112/8 9/110/10 10/111/77 12/113/78
f 13/114/6 11/112/8 12/113/78 14/115/79
f 15/116/4 13/114/6 14/115/79 16/117/80
f 2/101/1 15/116/4 16/117/80 3/102/73
f 17/118/81 18/119/81 19/120/81
f 17/118/81 19/120/81 20/121/81
f 17/118/81 20/121/81 21/122/81
f 17/123/81 21/122/81 22/124/81
f 17/123/81 22/124/81 23/125/81
f 17/123/81 23/125/81 24/126/81
f 17/123/81 24/126/81 25/127/81
f 25/128/81 18/119/81 17/118/81
f 26/129/82 27/130/82 28/131/82
f 26/129/82 28/131/82 29/132/82
f 30/133/82 26/129/82 29/132/82
f 30/133/82 29/132/82 31/134/82
f 32/135/82 30/133/82 31/134/82
f 32/135/82 31/134/82 33/136/82
f 34/137/83 35/138/84 36/139/85 37/140/86
f 35/138/84 38/141/87 39/142/88 36/139/85
f 40/143/89 41/144/90 35/138/84 34/137/83
f 41/144/90 42/145/91 38/141/87 35/138/84
f 43/146/92 44/147/93 41/148/90 40/149/89
f 44/147/93 45/150/94 42/151/91 41/148/90
f 46/152/95 47/153/96 44/147/93 43/146/92
f 47/153/96 48/154/97 45/150/94 44/147/93
f 49/155/98 50/156/99 47/153/96 46/152/95
f 50/156/99 51/157/100 48/154/97 47/153/96
f 52/158/101 53/159/102 50/156/99 49/155/98
f 53/159/102 54/160/103 51/157/100 50/156/99
f 55/161/104 56/162/105 53/159/102 52/158/101
f 56/162/105 57/163/106 54/160/103 53/159/102
f 37/140/86 36/139/85 56/162/105 55/161/104
f 36/139/85 39/142/88 57/163/106 56/162/105
