# Blender v2.79 (sub 0) OBJ File: ''
# www.blender.org
mtllib purple_bottle.mtl
o small_health_poti.003_Cylinder.010
v 0.726286 0.050250 -0.141615
v 0.727989 0.080075 -0.143319
v 0.753763 0.080075 -0.081095
v 0.751355 0.050250 -0.081095
v 0.727989 0.080075 -0.018872
v 0.726286 0.050250 -0.020575
v 0.665766 0.080075 0.006902
v 0.665766 0.050250 0.004493
v 0.603543 0.080075 -0.018872
v 0.605246 0.050250 -0.020575
v 0.577769 0.080075 -0.081095
v 0.580177 0.050250 -0.081095
v 0.603543 0.080075 -0.143319
v 0.605246 0.050250 -0.141615
v 0.665766 0.080075 -0.169092
v 0.665766 0.050250 -0.166684
v 0.665766 0.130304 -0.172199
v 0.730186 0.130304 -0.145515
v 0.601346 0.130304 -0.145515
v 0.574662 0.130304 -0.081095
v 0.601346 0.130304 -0.016675
v 0.665766 0.130304 0.010009
v 0.730186 0.130304 -0.016675
v 0.756870 0.130304 -0.081095
v 0.717162 0.289849 -0.081095
v 0.702109 0.289849 -0.117438
v 0.696558 0.355025 -0.111887
v 0.709312 0.355025 -0.081095
v 0.702109 0.289849 -0.044753
v 0.696558 0.355025 -0.050303
v 0.665766 0.289849 -0.029699
v 0.665766 0.355025 -0.037549
v 0.629423 0.289849 -0.044753
v 0.634974 0.355025 -0.050303
v 0.614370 0.289849 -0.081095
v 0.622220 0.355025 -0.081095
v 0.629424 0.289849 -0.117438
v 0.634974 0.355025 -0.111887
v 0.665766 0.289849 -0.132491
v 0.665766 0.355025 -0.124641
v 0.665766 0.447308 -0.136829
v 0.705176 0.447308 -0.120505
v 0.626356 0.447308 -0.120505
v 0.610032 0.447308 -0.081095
v 0.626356 0.447308 -0.041685
v 0.665766 0.447308 -0.025361
v 0.705176 0.447308 -0.041685
v 0.721500 0.447308 -0.081095
v 0.705176 0.447308 -0.120505
v 0.665766 0.447308 -0.136829
v 0.665766 0.454652 -0.122608
v 0.695120 0.454652 -0.110450
v 0.626356 0.447308 -0.120505
v 0.636412 0.454652 -0.110450
v 0.610032 0.447308 -0.081095
v 0.624253 0.454652 -0.081095
v 0.626356 0.447308 -0.041685
v 0.636412 0.454652 -0.051741
v 0.665766 0.447308 -0.025361
v 0.665766 0.454652 -0.039582
v 0.705176 0.447308 -0.041685
v 0.695120 0.454652 -0.051741
v 0.721500 0.447308 -0.081095
v 0.707279 0.454652 -0.081095
v 0.734517 0.172277 -0.149846
v 0.762994 0.172277 -0.081095
v 0.747447 0.229205 -0.162776
v 0.781280 0.229205 -0.081095
v 0.734517 0.172277 -0.012345
v 0.747447 0.229205 0.000586
v 0.665766 0.172277 0.016133
v 0.665766 0.229205 0.034419
v 0.597016 0.172277 -0.012345
v 0.584085 0.229205 0.000586
v 0.568538 0.172277 -0.081095
v 0.550252 0.229205 -0.081095
v 0.597016 0.172277 -0.149846
v 0.584085 0.229205 -0.162776
v 0.665766 0.172277 -0.178323
v 0.665766 0.229205 -0.196610
v 0.665766 0.258617 -0.165512
v 0.725458 0.258617 -0.140787
v 0.606074 0.258617 -0.140787
v 0.581349 0.258617 -0.081095
v 0.606074 0.258617 -0.021403
v 0.665766 0.258617 0.003322
v 0.725458 0.258617 -0.021403
v 0.750183 0.258617 -0.081095
v 0.665766 0.239646 -0.194886
v 0.746228 0.239646 -0.161558
v 0.585304 0.239646 -0.161558
v 0.551975 0.239646 -0.081095
v 0.585304 0.239646 -0.000633
v 0.665766 0.239646 0.032696
v 0.746228 0.239646 -0.000633
v 0.779557 0.239646 -0.081095
v 0.726286 0.031742 -0.141615
v 0.665766 0.031742 -0.166684
v 0.605246 0.031742 -0.141615
v 0.580177 0.031742 -0.081095
v 0.605246 0.031742 -0.020575
v 0.665766 0.031742 0.004493
v 0.726286 0.031742 -0.020575
v 0.751355 0.031742 -0.081095
v 0.665766 0.031742 -0.081095
v 0.726286 0.031742 -0.141615
v 0.751355 0.031742 -0.081095
v 0.726286 0.031742 -0.020575
v 0.665766 0.031742 0.004493
v 0.605246 0.031742 -0.020575
v 0.580177 0.031742 -0.081095
v 0.605246 0.031742 -0.141615
v 0.665766 0.031742 -0.166684
v 0.694994 0.497629 -0.110323
v 0.665766 0.497629 -0.122430
v 0.636538 0.497629 -0.110323
v 0.624431 0.497629 -0.081095
v 0.707101 0.497629 -0.081095
v 0.636538 0.497629 -0.051867
v 0.694994 0.497629 -0.051867
v 0.665766 0.497629 -0.039761
v 0.665766 0.454652 -0.122608
v 0.665766 0.488690 -0.127643
v 0.698680 0.488690 -0.114009
v 0.695120 0.454652 -0.110450
v 0.665766 0.497629 -0.122430
v 0.694994 0.497629 -0.110323
v 0.636412 0.454652 -0.110450
v 0.632852 0.488690 -0.114009
v 0.636538 0.497629 -0.110323
v 0.624253 0.454652 -0.081095
v 0.619218 0.488690 -0.081095
v 0.624431 0.497629 -0.081095
v 0.636412 0.454652 -0.051741
v 0.632852 0.488690 -0.048181
v 0.636538 0.497629 -0.051867
v 0.665766 0.454652 -0.039582
v 0.665766 0.488690 -0.034548
v 0.665766 0.497629 -0.039761
v 0.695120 0.454652 -0.051741
v 0.698680 0.488690 -0.048181
v 0.694994 0.497629 -0.051867
v 0.707279 0.454652 -0.081095
v 0.712314 0.488690 -0.081095
v 0.707101 0.497629 -0.081095
vt 0.447222 0.788684
vt 0.397514 0.788684
vt 0.397514 0.759571
vt 0.447222 0.759571
vt 0.099267 0.788684
vt 0.049559 0.788684
vt 0.049559 0.759571
vt 0.099267 0.759571
vt 0.148975 0.788684
vt 0.148975 0.759571
vt 0.198683 0.788684
vt 0.198683 0.759571
vt 0.248391 0.788684
vt 0.248391 0.759571
vt 0.298099 0.788684
vt 0.298099 0.759571
vt 0.347806 0.788684
vt 0.347806 0.759571
vt 0.495453 0.759571
vt 0.397514 0.759571
vt 0.347806 0.759571
vt 0.298099 0.759571
vt 0.248391 0.759571
vt 0.097790 0.759571
vt 0.198683 0.759571
vt 0.148975 0.759571
vt 0.099267 0.759571
vt 0.049559 0.759571
vt 0.447222 0.759571
vt 0.783713 0.661033
vt 0.872116 0.749436
vt 0.872116 0.874458
vt 0.783712 0.962861
vt 0.658691 0.661033
vt 0.658691 0.962861
vt 0.570287 0.749436
vt 0.570287 0.874458
vt 0.397758 0.727786
vt 0.397758 0.859020
vt 0.348221 0.859020
vt 0.348221 0.727786
vt 0.397758 0.990255
vt 0.348221 0.990255
vt 0.447295 0.727786
vt 0.447295 0.859020
vt 0.447295 0.990255
vt 0.100536 0.727786
vt 0.100536 0.859020
vt 0.051000 0.859020
vt 0.051000 0.727786
vt 0.100537 0.990255
vt 0.051000 0.990255
vt 0.150073 0.727786
vt 0.150073 0.859020
vt 0.150073 0.990255
vt 0.199610 0.727786
vt 0.199610 0.859020
vt 0.199610 0.990255
vt 0.249147 0.727786
vt 0.249147 0.859020
vt 0.249147 0.990254
vt 0.298684 0.727786
vt 0.298684 0.859020
vt 0.298684 0.990255
vt 0.464792 0.098508
vt 0.464792 0.148713
vt 0.391577 0.148713
vt 0.391577 0.098508
vt 0.318363 0.148713
vt 0.318363 0.098508
vt 0.245149 0.148713
vt 0.245149 0.098508
vt 0.171934 0.148713
vt 0.171934 0.098508
vt 0.098720 0.148713
vt 0.098720 0.098508
vt 0.025505 0.148713
vt 0.025505 0.098508
vt 0.611221 0.098508
vt 0.611221 0.148713
vt 0.538006 0.148713
vt 0.538006 0.098508
vt 0.538006 0.238984
vt 0.464792 0.238984
vt 0.611221 0.238984
vt 0.098720 0.238984
vt 0.025505 0.238984
vt 0.171934 0.238984
vt 0.245149 0.238984
vt 0.318363 0.238984
vt 0.391577 0.238984
vt 0.433094 0.448732
vt 0.515428 0.448732
vt 0.516954 0.463704
vt 0.434620 0.463704
vt 0.350760 0.448732
vt 0.352286 0.463704
vt 0.268427 0.448732
vt 0.269953 0.463704
vt 0.186093 0.448732
vt 0.187619 0.463704
vt 0.103759 0.448732
vt 0.105285 0.463704
vt 0.021425 0.448732
vt 0.022951 0.463704
vt 0.597762 0.448732
vt 0.680096 0.448732
vt 0.681621 0.463704
vt 0.599288 0.463704
vt 0.599288 0.614277
vt 0.516954 0.614277
vt 0.681621 0.614277
vt 0.105285 0.614277
vt 0.022951 0.614277
vt 0.187619 0.614277
vt 0.269953 0.614277
vt 0.352286 0.614277
vt 0.434620 0.614277
vt 0.516954 0.614277
vt 0.599288 0.614277
vt 0.599288 0.625114
vt 0.516954 0.625114
vt 0.681621 0.614277
vt 0.681621 0.625114
vt 0.022951 0.614277
vt 0.105285 0.614277
vt 0.105285 0.625114
vt 0.022951 0.625114
vt 0.187619 0.614277
vt 0.187619 0.625114
vt 0.269953 0.614277
vt 0.269953 0.625114
vt 0.352286 0.614277
vt 0.352286 0.625114
vt 0.434620 0.614277
vt 0.434620 0.625114
vt 0.464792 0.288241
vt 0.391577 0.288241
vt 0.464792 0.337498
vt 0.391577 0.337498
vt 0.318363 0.288241
vt 0.318363 0.337498
vt 0.245149 0.288241
vt 0.245149 0.337498
vt 0.171934 0.288241
vt 0.171934 0.337498
vt 0.098720 0.288241
vt 0.098720 0.337498
vt 0.025505 0.288241
vt 0.025505 0.337498
vt 0.611221 0.288241
vt 0.538006 0.288241
vt 0.611221 0.337498
vt 0.538006 0.337498
vt 0.538006 0.380102
vt 0.538006 0.422705
vt 0.464792 0.422705
vt 0.464792 0.380101
vt 0.611221 0.380102
vt 0.611221 0.422705
vt 0.098720 0.380102
vt 0.098720 0.422705
vt 0.025505 0.422705
vt 0.025505 0.380102
vt 0.171934 0.380102
vt 0.171934 0.422705
vt 0.245149 0.380102
vt 0.245149 0.422705
vt 0.318363 0.380102
vt 0.318363 0.422705
vt 0.391577 0.380102
vt 0.391577 0.422705
vt 0.538006 0.358800
vt 0.464792 0.358800
vt 0.611221 0.358800
vt 0.098720 0.358800
vt 0.025505 0.358800
vt 0.171934 0.358800
vt 0.245149 0.358800
vt 0.318363 0.358800
vt 0.391577 0.358800
vn -0.0000 -0.0407 -0.9992
vn 0.7065 -0.0407 -0.7065
vn 0.7071 0.0000 -0.7071
vn 0.0000 0.0000 -1.0000
vn -0.7065 -0.0407 -0.7065
vn -0.7071 -0.0000 -0.7071
vn -0.9992 -0.0407 0.0000
vn -1.0000 -0.0000 0.0000
vn -0.7065 -0.0407 0.7065
vn -0.7071 0.0000 0.7071
vn 0.0000 -0.0407 0.9992
vn 0.0000 0.0000 1.0000
vn 0.7065 -0.0407 0.7065
vn 0.7071 0.0000 0.7071
vn 0.9992 -0.0407 0.0000
vn 1.0000 0.0000 0.0000
vn -0.0000 -1.0000 -0.0000
vn 0.0000 1.0000 -0.0000
vn -0.0000 -0.1463 -0.9892
vn 0.0000 0.1759 -0.9844
vn 0.6961 0.1759 -0.6961
vn 0.6995 -0.1463 -0.6995
vn 0.0000 0.5038 -0.8638
vn 0.6108 0.5038 -0.6108
vn -0.6995 -0.1463 -0.6995
vn -0.6961 0.1759 -0.6961
vn -0.6108 0.5038 -0.6108
vn -0.9892 -0.1463 0.0000
vn -0.9844 0.1759 0.0000
vn -0.8638 0.5038 0.0000
vn -0.6995 -0.1463 0.6995
vn -0.6961 0.1759 0.6961
vn -0.6108 0.5038 0.6108
vn -0.0000 -0.1463 0.9892
vn 0.0000 0.1759 0.9844
vn 0.0000 0.5038 0.8638
vn 0.6995 -0.1463 0.6995
vn 0.6961 0.1759 0.6961
vn 0.6108 0.5038 0.6108
vn 0.9892 -0.1463 0.0000
vn 0.9844 0.1759 0.0000
vn 0.8638 0.5038 0.0000
vn 0.7053 -0.0710 -0.7053
vn 0.9975 -0.0710 0.0000
vn 0.7053 -0.0710 0.7053
vn -0.0000 -0.0710 0.9975
vn -0.7053 -0.0710 0.7053
vn -0.9975 -0.0710 0.0000
vn -0.7053 -0.0710 -0.7053
vn -0.0000 -0.0710 -0.9975
vn -0.0000 -0.1042 -0.9946
vn 0.7033 -0.1042 -0.7033
vn -0.7033 -0.1042 -0.7033
vn -0.9946 -0.1042 0.0000
vn -0.7033 -0.1042 0.7033
vn -0.0000 -0.1042 0.9946
vn 0.7033 -0.1042 0.7033
vn 0.9946 -0.1042 0.0000
vn 0.8735 0.4869 0.0000
vn 0.6176 0.4869 -0.6176
vn 0.7071 -0.0059 -0.7071
vn 1.0000 -0.0059 0.0000
vn 0.6176 0.4869 0.6176
vn 0.7071 -0.0059 0.7071
vn 0.0000 0.4869 0.8735
vn 0.0000 -0.0059 1.0000
vn -0.6176 0.4869 0.6176
vn -0.7071 -0.0059 0.7071
vn -0.8735 0.4869 -0.0000
vn -1.0000 -0.0059 -0.0000
vn -0.6176 0.4869 -0.6176
vn -0.7071 -0.0059 -0.7071
vn -0.0000 0.4869 -0.8735
vn -0.0000 -0.0059 -1.0000
vn 0.0000 -0.1309 -0.9914
vn 0.7010 -0.1309 -0.7010
vn -0.7010 -0.1309 -0.7010
vn -0.9914 -0.1309 -0.0000
vn -0.7010 -0.1309 0.7010
vn 0.0000 -0.1309 0.9914
vn 0.7010 -0.1309 0.7010
vn 0.9914 -0.1309 -0.0000
vn 0.3245 0.8885 -0.3245
vn 0.0000 0.8885 -0.4589
vn -0.3245 0.8885 -0.3245
vn -0.4588 0.8885 0.0000
vn -0.3245 0.8885 0.3244
vn 0.0000 0.8885 0.4588
vn 0.3245 0.8885 0.3245
vn 0.4588 0.8885 -0.0000
vn 0.6881 -0.2305 -0.6881
vn 0.9731 -0.2305 0.0000
vn 0.7054 -0.0697 -0.7054
vn 0.9976 -0.0697 0.0000
vn 0.6881 -0.2305 0.6881
vn 0.7054 -0.0697 0.7054
vn -0.0000 -0.2305 0.9731
vn -0.0000 -0.0697 0.9976
vn -0.6881 -0.2305 0.6881
vn -0.7054 -0.0697 0.7054
vn -0.9731 -0.2305 0.0000
vn -0.9976 -0.0697 0.0000
vn -0.6881 -0.2305 -0.6881
vn -0.7054 -0.0697 -0.7054
vn -0.0000 -0.2305 -0.9731
vn -0.0000 -0.0697 -0.9976
vn -0.0000 0.7978 -0.6030
vn 0.4264 0.7978 -0.4264
vn -0.4264 0.7978 -0.4264
vn -0.6030 0.7978 0.0000
vn -0.4264 0.7978 0.4264
vn 0.0000 0.7978 0.6030
vn 0.4264 0.7978 0.4264
vn 0.6030 0.7978 0.0000
vn -0.0000 0.5073 -0.8618
vn 0.6094 0.5073 -0.6094
vn -0.6094 0.5073 -0.6094
vn -0.8618 0.5073 0.0000
vn -0.6094 0.5073 0.6094
vn -0.0000 0.5073 0.8618
vn 0.6094 0.5073 0.6094
vn 0.8618 0.5073 0.0000
usemtl Material_NONE
s 1
f 16/1/1 1/2/2 97/3/3 98/4/4
f 14/5/5 16/6/1 98/7/4 99/8/6
f 12/9/7 14/5/5 99/8/6 100/10/8
f 10/11/9 12/9/7 100/10/8 101/12/10
f 8/13/11 10/11/9 101/12/10 102/14/12
f 6/15/13 8/13/11 102/14/12 103/16/14
f 4/17/15 6/15/13 103/16/14 104/18/16
f 1/2/2 4/17/15 104/18/16 97/3/3
f 105/19/17 106/20/17 107/21/17
f 105/19/17 107/21/17 108/22/17
f 105/19/17 108/22/17 109/23/17
f 105/24/17 109/23/17 110/25/17
f 105/24/17 110/25/17 111/26/17
f 105/24/17 111/26/17 112/27/17
f 105/24/17 112/27/17 113/28/17
f 113/29/17 106/20/17 105/19/17
f 114/30/18 115/31/18 116/32/18
f 114/30/18 116/32/18 117/33/18
f 118/34/18 114/30/18 117/33/18
f 118/34/18 117/33/18 119/35/18
f 120/36/18 118/34/18 119/35/18
f 120/36/18 119/35/18 121/37/18
f 122/38/19 123/39/20 124/40/21 125/41/22
f 123/39/20 126/42/23 127/43/24 124/40/21
f 128/44/25 129/45/26 123/39/20 122/38/19
f 129/45/26 130/46/27 126/42/23 123/39/20
f 131/47/28 132/48/29 129/49/26 128/50/25
f 132/48/29 133/51/30 130/52/27 129/49/26
f 134/53/31 135/54/32 132/48/29 131/47/28
f 135/54/32 136/55/33 133/51/30 132/48/29
f 137/56/34 138/57/35 135/54/32 134/53/31
f 138/57/35 139/58/36 136/55/33 135/54/32
f 140/59/37 141/60/38 138/57/35 137/56/34
f 141/60/38 142/61/39 139/58/36 138/57/35
f 143/62/40 144/63/41 141/60/38 140/59/37
f 144/63/41 145/64/42 142/61/39 141/60/38
f 125/41/22 124/40/21 144/63/41 143/62/40
f 124/40/21 127/43/24 145/64/42 144/63/41
usemtl Material.002
f 1/65/2 2/66/43 3/67/44 4/68/15
f 4/68/15 3/67/44 5/69/45 6/70/13
f 6/70/13 5/69/45 7/71/46 8/72/11
f 8/72/11 7/71/46 9/73/47 10/74/9
f 10/74/9 9/73/47 11/75/48 12/76/7
f 12/76/7 11/75/48 13/77/49 14/78/5
f 14/79/5 13/80/49 15/81/50 16/82/1
f 2/66/43 1/65/2 16/82/1 15/81/50
f 2/66/43 15/81/50 17/83/51 18/84/52
f 15/81/50 13/80/49 19/85/53 17/83/51
f 13/77/49 11/75/48 20/86/54 19/87/53
f 11/75/48 9/73/47 21/88/55 20/86/54
f 9/73/47 7/71/46 22/89/56 21/88/55
f 7/71/46 5/69/45 23/90/57 22/89/56
f 5/69/45 3/67/44 24/91/58 23/90/57
f 3/67/44 2/66/43 18/84/52 24/91/58
f 25/92/59 26/93/60 27/94/61 28/95/62
f 29/96/63 25/92/59 28/95/62 30/97/64
f 31/98/65 29/96/63 30/97/64 32/99/66
f 33/100/67 31/98/65 32/99/66 34/101/68
f 35/102/69 33/100/67 34/101/68 36/103/70
f 37/104/71 35/102/69 36/103/70 38/105/72
f 39/106/73 37/107/71 38/108/72 40/109/74
f 26/93/60 39/106/73 40/109/74 27/94/61
f 27/94/61 40/109/74 41/110/75 42/111/76
f 40/109/74 38/108/72 43/112/77 41/110/75
f 38/105/72 36/103/70 44/113/78 43/114/77
f 36/103/70 34/101/68 45/115/79 44/113/78
f 34/101/68 32/99/66 46/116/80 45/115/79
f 32/99/66 30/97/64 47/117/81 46/116/80
f 30/97/64 28/95/62 48/118/82 47/117/81
f 28/95/62 27/94/61 42/111/76 48/118/82
f 49/119/83 50/120/84 51/121/84 52/122/83
f 50/120/84 53/123/85 54/124/85 51/121/84
f 53/125/85 55/126/86 56/127/86 54/128/85
f 55/126/86 57/129/87 58/130/87 56/127/86
f 57/129/87 59/131/88 60/132/88 58/130/87
f 59/131/88 61/133/89 62/134/89 60/132/88
f 61/133/89 63/135/90 64/136/90 62/134/89
f 63/135/90 49/119/83 52/122/83 64/136/90
f 18/84/52 65/137/91 66/138/92 24/91/58
f 65/137/91 67/139/93 68/140/94 66/138/92
f 24/91/58 66/138/92 69/141/95 23/90/57
f 66/138/92 68/140/94 70/142/96 69/141/95
f 23/90/57 69/141/95 71/143/97 22/89/56
f 69/141/95 70/142/96 72/144/98 71/143/97
f 22/89/56 71/143/97 73/145/99 21/88/55
f 71/143/97 72/144/98 74/146/100 73/145/99
f 21/88/55 73/145/99 75/147/101 20/86/54
f 73/145/99 74/146/100 76/148/102 75/147/101
f 20/86/54 75/147/101 77/149/103 19/87/53
f 75/147/101 76/148/102 78/150/104 77/149/103
f 19/85/53 77/151/103 79/152/105 17/83/51
f 77/151/103 78/153/104 80/154/106 79/152/105
f 17/83/51 79/152/105 65/137/91 18/84/52
f 79/152/105 80/154/106 67/139/93 65/137/91
f 81/155/107 39/156/73 26/157/60 82/158/108
f 83/159/109 37/160/71 39/156/73 81/155/107
f 84/161/110 35/162/69 37/163/71 83/164/109
f 85/165/111 33/166/67 35/162/69 84/161/110
f 86/167/112 31/168/65 33/166/67 85/165/111
f 87/169/113 29/170/63 31/168/65 86/167/112
f 88/171/114 25/172/59 29/170/63 87/169/113
f 82/158/108 26/157/60 25/172/59 88/171/114
f 80/154/106 89/173/115 90/174/116 67/139/93
f 89/173/115 81/155/107 82/158/108 90/174/116
f 78/153/104 91/175/117 89/173/115 80/154/106
f 91/175/117 83/159/109 81/155/107 89/173/115
f 76/148/102 92/176/118 91/177/117 78/150/104
f 92/176/118 84/161/110 83/164/109 91/177/117
f 74/146/100 93/178/119 92/176/118 76/148/102
f 93/178/119 85/165/111 84/161/110 92/176/118
f 72/144/98 94/179/120 93/178/119 74/146/100
f 94/179/120 86/167/112 85/165/111 93/178/119
f 70/142/96 95/180/121 94/179/120 72/144/98
f 95/180/121 87/169/113 86/167/112 94/179/120
f 68/140/94 96/181/122 95/180/121 70/142/96
f 96/181/122 88/171/114 87/169/113 95/180/121
f 67/139/93 90/174/116 96/181/122 68/140/94
f 90/174/116 82/158/108 88/171/114 96/181/122
