# Blender v2.79 (sub 0) OBJ File: 'operatorV2.blend'
# www.blender.org
mtllib paramBlock.mtl
o paramBlock
v -0.132626 -0.025500 0.024400
v -0.132626 -0.022950 0.025750
v -0.133826 -0.022950 0.024400
v -0.024890 -0.022950 0.024400
v -0.026089 -0.022950 0.025750
v -0.026089 -0.025500 0.024400
v -0.133826 0.022950 0.024400
v -0.132626 0.022950 0.025750
v -0.132626 0.025500 0.024400
v -0.026089 0.025500 0.024400
v -0.026089 0.022950 0.025750
v -0.024890 0.022950 0.024400
v -0.133826 0.022950 -0.024311
v -0.132626 0.025500 -0.024311
v -0.132626 0.022950 -0.025661
v -0.026089 0.022950 -0.025661
v -0.026089 0.025500 -0.024311
v -0.024890 0.022950 -0.024311
v -0.133826 -0.022950 -0.024311
v -0.132626 -0.022950 -0.025661
v -0.132626 -0.025500 -0.024311
v -0.026089 -0.025500 -0.024311
v -0.026089 -0.022950 -0.025661
v -0.024890 -0.022950 -0.024311
v -0.048989 -0.015762 0.025750
v -0.106255 -0.015762 0.025750
v -0.048989 0.015773 0.025750
v -0.106255 0.015773 0.025750
v -0.049300 -0.015321 0.026067
v -0.105945 -0.015321 0.026067
v -0.049300 0.015332 0.026067
v -0.105945 0.015332 0.026067
v -0.049608 -0.014636 0.026067
v -0.105637 -0.014636 0.026067
v -0.049608 0.014647 0.026067
v -0.105637 0.014647 0.026067
v -0.049940 -0.012691 0.025470
v -0.104865 -0.012691 0.025470
v -0.049940 0.013648 0.025470
v -0.104865 0.013648 0.025470
vt 0.376667 0.995000
vt 0.375000 0.995000
vt 0.375000 0.755000
vt 0.376667 0.755000
vt 0.376667 0.012499
vt 0.376667 0.000000
vt 0.623333 0.000000
vt 0.623334 0.012499
vt 0.370001 0.012499
vt 0.376666 0.237501
vt 0.370001 0.237501
vt 0.625000 0.995000
vt 0.623334 0.995000
vt 0.623334 0.755000
vt 0.625000 0.755000
vt 0.630000 0.012499
vt 0.629999 0.237501
vt 0.623333 0.237501
vt 0.375000 0.255000
vt 0.376667 0.255000
vt 0.376667 0.495000
vt 0.375000 0.495000
vt 0.623334 0.254999
vt 0.625000 0.255000
vt 0.625000 0.495000
vt 0.623334 0.495001
vt 0.375000 0.512499
vt 0.376667 0.512499
vt 0.376666 0.737501
vt 0.375000 0.737501
vt 0.623334 0.512499
vt 0.625000 0.512499
vt 0.625000 0.737501
vt 0.623333 0.737501
vt 0.376667 0.012499
vt 0.623334 0.012499
vt 0.623333 0.237501
vt 0.376666 0.237501
vt 0.870000 0.012499
vt 0.870001 0.237501
vt 0.129999 0.012499
vt 0.129999 0.237501
vt 0.623334 0.012499
vt 0.376667 0.012499
vt 0.623333 0.237501
vt 0.376666 0.237501
vt 0.623334 0.012499
vt 0.376667 0.012499
vt 0.623333 0.237501
vt 0.376666 0.237501
vt 0.623334 0.012499
vt 0.376667 0.012499
vt 0.623333 0.237501
vt 0.376666 0.237501
vn -0.9048 -0.4258 -0.0000
vn 0.0000 -0.4679 0.8838
vn -0.7474 -0.0000 0.6644
vn 0.9048 -0.4258 -0.0000
vn 0.7474 -0.0000 0.6644
vn -0.9048 0.4258 0.0000
vn 0.0000 0.4679 0.8838
vn 0.9048 0.4258 0.0000
vn -0.7474 0.0000 -0.6644
vn 0.0000 0.4679 -0.8838
vn 0.7474 0.0000 -0.6644
vn 0.0000 -0.4679 -0.8838
vn 0.0000 -0.0000 1.0000
vn 0.0000 1.0000 0.0000
vn 0.0000 0.0000 -1.0000
vn 0.0000 -1.0000 -0.0000
vn 1.0000 0.0000 0.0000
vn -1.0000 0.0000 0.0000
vn -0.7051 -0.3318 0.6267
vn 0.7051 -0.3318 0.6267
vn -0.7051 0.3318 0.6267
vn 0.7051 0.3318 0.6267
vn -0.7051 0.3318 -0.6267
vn 0.7051 0.3318 -0.6267
vn -0.7051 -0.3318 -0.6267
vn 0.7051 -0.3318 -0.6267
vn 0.0000 -0.5839 0.8118
vn 0.7141 -0.0000 0.7001
vn 0.0000 0.5839 0.8118
vn -0.7141 -0.0000 0.7001
vn 0.0000 0.2936 0.9559
vn -0.8739 -0.0000 0.4861
vn 0.0000 -0.5134 0.8582
vn 0.6119 -0.0000 0.7909
usemtl phong1.008
s 1
f 1/1/1 3/2/1 19/3/1 21/4/1
f 2/5/2 1/6/2 6/7/2 5/8/2
f 3/9/3 2/5/3 8/10/3 7/11/3
f 4/12/4 6/13/4 22/14/4 24/15/4
f 5/8/5 4/16/5 12/17/5 11/18/5
f 7/19/6 9/20/6 14/21/6 13/22/6
f 9/20/7 8/10/7 11/18/7 10/23/7
f 10/23/8 12/24/8 18/25/8 17/26/8
f 13/27/9 15/28/9 20/29/9 19/30/9
f 15/28/10 14/21/10 17/26/10 16/31/10
f 16/31/11 18/32/11 24/33/11 23/34/11
f 21/4/12 20/29/12 23/34/12 22/14/12
f 38/35/13 37/36/13 39/37/13 40/38/13
f 9/20/14 10/23/14 17/26/14 14/21/14
f 15/28/15 16/31/15 23/34/15 20/29/15
f 21/4/16 22/14/16 6/13/16 1/1/16
f 4/16/17 24/39/17 18/40/17 12/17/17
f 19/41/18 3/9/18 7/11/18 13/42/18
f 1/6/19 2/5/19 3/9/19
f 4/16/20 5/8/20 6/7/20
f 7/11/21 8/10/21 9/20/21
f 10/23/22 11/18/22 12/17/22
f 13/22/23 14/21/23 15/28/23
f 16/31/24 17/26/24 18/25/24
f 19/30/25 20/29/25 21/4/25
f 22/14/26 23/34/26 24/33/26
f 2/5/13 5/8/13 25/43/13 26/44/13
f 5/8/13 11/18/13 27/45/13 25/43/13
f 11/18/13 8/10/13 28/46/13 27/45/13
f 8/10/13 2/5/13 26/44/13 28/46/13
f 26/44/27 25/43/27 29/47/27 30/48/27
f 25/43/28 27/45/28 31/49/28 29/47/28
f 27/45/29 28/46/29 32/50/29 31/49/29
f 28/46/30 26/44/30 30/48/30 32/50/30
f 30/48/13 29/47/13 33/51/13 34/52/13
f 29/47/13 31/49/13 35/53/13 33/51/13
f 31/49/13 32/50/13 36/54/13 35/53/13
f 32/50/13 30/48/13 34/52/13 36/54/13
f 34/52/31 33/51/31 37/36/31 38/35/31
f 33/51/32 35/53/32 39/37/32 37/36/32
f 35/53/33 36/54/33 40/38/33 39/37/33
f 36/54/34 34/52/34 38/35/34 40/38/34
