{
  "accessors": [
    {
      "bufferView": 2,
      "componentType": 5126,
      "count": 4,
      "max": [
        17.7403564453125,
        17.7403564453125,
        0
      ],
      "min": [
        -17.7403564453125,
        -17.7403564453125,
        0
      ],
      "type": "VEC3"
    },
    {
      "bufferView": 2,
      "byteOffset": 48,
      "componentType": 5126,
      "count": 4,
      "max": [
        0,
        0,
        1
      ],
      "min": [
        0,
        0,
        1
      ],
      "type": "VEC3"
    },
    {
      "bufferView": 3,
      "componentType": 5126,
      "count": 4,
      "max": [
        1,
        0,
        0,
        1
      ],
      "min": [
        1,
        -1.0751649881513003e-07,
        0,
        1
      ],
      "type": "VEC4"
    },
    {
      "bufferView": 1,
      "componentType": 5126,
      "count": 4,
      "max": [
        0.99990004301071167,
        0.99990004301071167
      ],
      "min": [
        9.9980010418221354e-05,
        9.9980010418221354e-05
      ],
      "type": "VEC2"
    },
    {
      "bufferView": 0,
      "componentType": 5125,
      "count": 6,
      "max": [
        3
      ],
      "min": [
        0
      ],
      "type": "SCALAR"
    },
    {
      "bufferView": 2,
      "byteOffset": 96,
      "componentType": 5126,
      "count": 3163,
      "max": [
        1.9547995328903198,
        17.409088134765625,
        9.2305698394775391
      ],
      "min": [
        -1.9547995328903198,
        -9.4233474731445312,
        -5.982053279876709
      ],
      "type": "VEC3"
    },
    {
      "bufferView": 2,
      "byteOffset": 38052,
      "componentType": 5126,
      "count": 3163,
      "max": [
        1,
        1,
        1
      ],
      "min": [
        -1,
        -1,
        -1
      ],
      "type": "VEC3"
    },
    {
      "bufferView": 3,
      "byteOffset": 64,
      "componentType": 5126,
      "count": 3163,
      "max": [
        1,
        1,
        1,
        1
      ],
      "min": [
        -1,
        -1,
        -1,
        1
      ],
      "type": "VEC4"
    },
    {
      "bufferView": 3,
      "byteOffset": 50672,
      "componentType": 5126,
      "count": 3163,
      "max": [
        1,
        1,
        1,
        1
      ],
      "min": [
        1,
        1,
        1,
        1
      ],
      "type": "VEC4"
    },
    {
      "bufferView": 1,
      "byteOffset": 32,
      "componentType": 5126,
      "count": 3163,
      "max": [
        0.9945913553237915,
        0.99457049369812012
      ],
      "min": [
        0.0054087056778371334,
        0.005429455079138279
      ],
      "type": "VEC2"
    },
    {
      "bufferView": 0,
      "byteOffset": 24,
      "componentType": 5125,
      "count": 7461,
      "max": [
        3162
      ],
      "min": [
        0
      ],
      "type": "SCALAR"
    },
    {
      "bufferView": 4,
      "componentType": 5126,
      "count": 346,
      "max": [
        5.9666666984558105
      ],
      "min": [
        0
      ],
      "type": "SCALAR"
    },
    {
      "bufferView": 5,
      "componentType": 5126,
      "count": 346,
      "max": [
        0,
        1254.825439453125,
        33.361186981201172
      ],
      "min": [
        0,
        1170.707763671875,
        33.361186981201172
      ],
      "type": "VEC3"
    },
    {
      "bufferView": 4,
      "byteOffset": 1384,
      "componentType": 5126,
      "count": 346,
      "max": [
        5.9666666984558105
      ],
      "min": [
        0
      ],
      "type": "SCALAR"
    },
    {
      "bufferView": 6,
      "componentType": 5126,
      "count": 346,
      "max": [
        0.49780145287513733,
        0.70707947015762329,
        0.70707958936691284,
        0.70710670948028564
      ],
      "min": [
        -0.7071068286895752,
        -0.49337524175643921,
        -0.49337530136108398,
        -0.49780136346817017
      ],
      "type": "VEC4"
    },
    {
      "bufferView": 4,
      "byteOffset": 2768,
      "componentType": 5126,
      "count": 346,
      "max": [
        5.9666666984558105
      ],
      "min": [
        0
      ],
      "type": "SCALAR"
    },
    {
      "bufferView": 5,
      "byteOffset": 4152,
      "componentType": 5126,
      "count": 346,
      "max": [
        0,
        1254.825439453125,
        0
      ],
      "min": [
        0,
        1170.707763671875,
        0
      ],
      "type": "VEC3"
    },
    {
      "bufferView": 4,
      "byteOffset": 4152,
      "componentType": 5126,
      "count": 346,
      "max": [
        5.9666666984558105
      ],
      "min": [
        0
      ],
      "type": "SCALAR"
    },
    {
      "bufferView": 6,
      "byteOffset": 5536,
      "componentType": 5126,
      "count": 346,
      "max": [
        0.3383161723613739,
        0.82433974742889404,
        0.56602734327316284,
        0.82437151670455933
      ],
      "min": [
        -0.56604915857315063,
        -0.65217864513397217,
        -0.44781404733657837,
        -0.49271038174629211
      ],
      "type": "VEC4"
    },
    {
      "bufferView": 4,
      "byteOffset": 5536,
      "componentType": 5126,
      "count": 1,
      "max": [
        0
      ],
      "min": [
        0
      ],
      "type": "SCALAR"
    },
    {
      "bufferView": 5,
      "byteOffset": 8304,
      "componentType": 5126,
      "count": 1,
      "max": [
        0,
        0,
        33.361186981201172
      ],
      "min": [
        0,
        0,
        33.361186981201172
      ],
      "type": "VEC3"
    },
    {
      "bufferView": 4,
      "byteOffset": 5540,
      "componentType": 5126,
      "count": 1,
      "max": [
        0
      ],
      "min": [
        0
      ],
      "type": "SCALAR"
    },
    {
      "bufferView": 6,
      "byteOffset": 11072,
      "componentType": 5126,
      "count": 1,
      "max": [
        -0.7071068286895752,
        0,
        0,
        0.70710670948028564
      ],
      "min": [
        -0.7071068286895752,
        0,
        0,
        0.70710670948028564
      ],
      "type": "VEC4"
    }
  ],
  "animations": [
    {
      "channels": [
        {
          "sampler": 0,
          "target": {
            "node": 5,
            "path": "translation"
          }
        },
        {
          "sampler": 1,
          "target": {
            "node": 5,
            "path": "rotation"
          }
        }
      ],
      "name": "Plane|dily1_lowAction.001",
      "samplers": [
        {
          "input": 11,
          "interpolation": "LINEAR",
          "output": 12
        },
        {
          "input": 13,
          "interpolation": "LINEAR",
          "output": 14
        }
      ]
    },
    {
      "channels": [
        {
          "sampler": 0,
          "target": {
            "node": 7,
            "path": "translation"
          }
        },
        {
          "sampler": 1,
          "target": {
            "node": 7,
            "path": "rotation"
          }
        }
      ],
      "name": "dily1_low|dily1_lowAction.001",
      "samplers": [
        {
          "input": 15,
          "interpolation": "LINEAR",
          "output": 16
        },
        {
          "input": 17,
          "interpolation": "LINEAR",
          "output": 18
        }
      ]
    },
    {
      "channels": [
        {
          "sampler": 0,
          "target": {
            "node": 7,
            "path": "translation"
          }
        },
        {
          "sampler": 1,
          "target": {
            "node": 7,
            "path": "rotation"
          }
        }
      ],
      "name": "dily1_low|PlaneAction",
      "samplers": [
        {
          "input": 19,
          "interpolation": "LINEAR",
          "output": 20
        },
        {
          "input": 21,
          "interpolation": "LINEAR",
          "output": 22
        }
      ]
    }
  ],
  "asset": {
    "extras": {
      "author": "Jakub Badin (https://sketchfab.com/bublifuck)",
      "license": "CC-BY-4.0 (http://creativecommons.org/licenses/by/4.0/)",
      "source": "https://sketchfab.com/models/9f76c4acd5ec4f3f95754c1cb9a8aba2",
      "title": "SciFi Pistol"
    },
    "generator": "Sketchfab-3.21.4",
    "version": "2.0"
  },
  "bufferViews": [
    {
      "buffer": 0,
      "byteLength": 29868,
      "byteOffset": 0,
      "name": "floatBufferViews",
      "target": 34963
    },
    {
      "buffer": 0,
      "byteLength": 25336,
      "byteOffset": 29868,
      "byteStride": 8,
      "name": "floatBufferViews",
      "target": 34962
    },
    {
      "buffer": 0,
      "byteLength": 76008,
      "byteOffset": 55204,
      "byteStride": 12,
      "name": "floatBufferViews",
      "target": 34962
    },
    {
      "buffer": 0,
      "byteLength": 101280,
      "byteOffset": 131212,
      "byteStride": 16,
      "name": "floatBufferViews",
      "target": 34962
    },
    {
      "buffer": 0,
      "byteLength": 5544,
      "byteOffset": 232492,
      "name": "floatBufferViews"
    },
    {
      "buffer": 0,
      "byteLength": 8316,
      "byteOffset": 238036,
      "byteStride": 12,
      "name": "floatBufferViews"
    },
    {
      "buffer": 0,
      "byteLength": 11088,
      "byteOffset": 246352,
      "byteStride": 16,
      "name": "floatBufferViews"
    }
  ],
  "buffers": [
    {
      "byteLength": 257440,
      "uri": "scene.bin"
    }
  ],
  "images": [
    {
      "uri": "textures/Plane__0_baseColor.png"
    },
    {
      "uri": "textures/scifigun_mat_baseColor.jpg"
    },
    {
      "uri": "textures/scifigun_mat_normal.png"
    },
    {
      "uri": "textures/scifigun_mat_metallicRoughness.png"
    },
    {
      "uri": "textures/scifigun_mat_emissive.jpg"
    }
  ],
  "materials": [
    {
      "alphaMode": "BLEND",
      "doubleSided": false,
      "name": "Plane__0",
      "pbrMetallicRoughness": {
        "baseColorFactor": [
          0,
          0,
          0,
          0.57136364559999997
        ],
        "baseColorTexture": {
          "index": 0,
          "texCoord": 0
        },
        "metallicFactor": 0,
        "roughnessFactor": 1
      }
    },
    {
      "doubleSided": true,
      "emissiveFactor": [
        1,
        1,
        1
      ],
      "emissiveTexture": {
        "index": 4,
        "texCoord": 0
      },
      "name": "scifigun_mat",
      "normalTexture": {
        "index": 2,
        "scale": 1,
        "texCoord": 0
      },
      "pbrMetallicRoughness": {
        "baseColorFactor": [
          1,
          1,
          1,
          1
        ],
        "baseColorTexture": {
          "index": 1,
          "texCoord": 0
        },
        "metallicFactor": 1,
        "metallicRoughnessTexture": {
          "index": 3,
          "texCoord": 0
        },
        "roughnessFactor": 1
      }
    }
  ],
  "meshes": [
    {
      "name": "Plane__0",
      "primitives": [
        {
          "attributes": {
            "NORMAL": 1,
            "POSITION": 0,
            "TANGENT": 2,
            "TEXCOORD_0": 3
          },
          "indices": 4,
          "material": 0,
          "mode": 4
        }
      ]
    },
    {
      "name": "dily1_low_scifigun mat_0",
      "primitives": [
        {
          "attributes": {
            "COLOR_0": 8,
            "NORMAL": 6,
            "POSITION": 5,
            "TANGENT": 7,
            "TEXCOORD_0": 9
          },
          "indices": 10,
          "material": 1,
          "mode": 4
        }
      ]
    }
  ],
  "nodes": [
    {
      "children": [
        1
      ],
      "name": "RootNode (gltf orientation matrix)",
      "rotation": [
        -0.70710678118654746,
        -0,
        -0,
        0.70710678118654757
      ]
    },
    {
      "children": [
        2
      ],
      "name": "RootNode (model correction matrix)"
    },
    {
      "children": [
        3
      ],
      "matrix": [
        1,
        0,
        0,
        0,
        0,
        0,
        1,
        0,
        0,
        -1,
        0,
        0,
        0,
        0,
        0,
        1
      ],
      "name": "c16981556dc4470f8da3eb31b52e944e.fbx"
    },
    {
      "children": [
        4
      ],
      "name": ""
    },
    {
      "children": [
        5,
        7
      ],
      "name": "RootNode"
    },
    {
      "children": [
        6
      ],
      "name": "Plane",
      "rotation": [
        -0.7071068286895752,
        0,
        0,
        0.70710670948028564
      ],
      "scale": [
        100,
        100,
        100
      ],
      "translation": [
        0,
        0,
        33.361186981201172
      ]
    },
    {
      "mesh": 0,
      "name": "Plane__0"
    },
    {
      "children": [
        8
      ],
      "name": "dily1_low",
      "rotation": [
        -0.43219658732414246,
        -0.53235453367233276,
        -0.3655378520488739,
        0.62943375110626221
      ],
      "scale": [
        100,
        100,
        100
      ],
      "translation": [
        0,
        1184.3096923828125,
        0
      ]
    },
    {
      "mesh": 1,
      "name": "dily1_low_scifigun mat_0"
    }
  ],
  "samplers": [
    {
      "magFilter": 9729,
      "minFilter": 9987,
      "wrapS": 10497,
      "wrapT": 10497
    }
  ],
  "scene": 0,
  "scenes": [
    {
      "name": "OSG_Scene",
      "nodes": [
        0
      ]
    }
  ],
  "textures": [
    {
      "sampler": 0,
      "source": 0
    },
    {
      "sampler": 0,
      "source": 1
    },
    {
      "sampler": 0,
      "source": 2
    },
    {
      "sampler": 0,
      "source": 3
    },
    {
      "sampler": 0,
      "source": 4
    }
  ]
}

