{
  "accessors": [
    {
      "bufferView": 1,
      "componentType": 5126,
      "count": 194,
      "max": [
        0.58640998601913452,
        0.17416000366210938,
        0.41659998893737793
      ],
      "min": [
        0.37259998917579651,
        -0.11389999836683273,
        -0.38080000877380371
      ],
      "type": "VEC3"
    },
    {
      "bufferView": 1,
      "byteOffset": 2328,
      "componentType": 5126,
      "count": 194,
      "max": [
        1,
        1,
        1
      ],
      "min": [
        -1,
        -1,
        -1
      ],
      "type": "VEC3"
    },
    {
      "bufferView": 0,
      "componentType": 5125,
      "count": 336,
      "max": [
        193
      ],
      "min": [
        0
      ],
      "type": "SCALAR"
    },
    {
      "bufferView": 1,
      "byteOffset": 4656,
      "componentType": 5126,
      "count": 194,
      "max": [
        -0.37196999788284302,
        0.17416000366210938,
        0.39304998517036438
      ],
      "min": [
        -0.58578002452850342,
        -0.11389999836683273,
        -0.40435001254081726
      ],
      "type": "VEC3"
    },
    {
      "bufferView": 1,
      "byteOffset": 6984,
      "componentType": 5126,
      "count": 194,
      "max": [
        1,
        1,
        1
      ],
      "min": [
        -1,
        -1,
        -1
      ],
      "type": "VEC3"
    },
    {
      "bufferView": 0,
      "byteOffset": 1344,
      "componentType": 5125,
      "count": 336,
      "max": [
        193
      ],
      "min": [
        0
      ],
      "type": "SCALAR"
    },
    {
      "bufferView": 1,
      "byteOffset": 9312,
      "componentType": 5126,
      "count": 65532,
      "max": [
        0.39601001143455505,
        0.15192000567913055,
        0.4008600115776062
      ],
      "min": [
        -0.39548999071121216,
        0.035980001091957092,
        -0.39063000679016113
      ],
      "type": "VEC3"
    },
    {
      "bufferView": 1,
      "byteOffset": 795696,
      "componentType": 5126,
      "count": 65532,
      "max": [
        1,
        1,
        1
      ],
      "min": [
        -1,
        -1,
        -1
      ],
      "type": "VEC3"
    },
    {
      "bufferView": 0,
      "byteOffset": 2688,
      "componentType": 5125,
      "count": 175032,
      "max": [
        65531
      ],
      "min": [
        0
      ],
      "type": "SCALAR"
    },
    {
      "bufferView": 1,
      "byteOffset": 1582080,
      "componentType": 5126,
      "count": 60533,
      "max": [
        0.15015000104904175,
        0.13739000260829926,
        0.15172000229358673
      ],
      "min": [
        -0.15275000035762787,
        0.13262000679969788,
        -0.15110999345779419
      ],
      "type": "VEC3"
    },
    {
      "bufferView": 1,
      "byteOffset": 2308476,
      "componentType": 5126,
      "count": 60533,
      "max": [
        1,
        0.0013550632866099477,
        1
      ],
      "min": [
        -1,
        -0.0012970231473445892,
        -1
      ],
      "type": "VEC3"
    },
    {
      "bufferView": 0,
      "byteOffset": 702816,
      "componentType": 5125,
      "count": 173925,
      "max": [
        60532
      ],
      "min": [
        0
      ],
      "type": "SCALAR"
    },
    {
      "bufferView": 1,
      "byteOffset": 3034872,
      "componentType": 5126,
      "count": 194,
      "max": [
        -0.26581001281738281,
        0.16558000445365906,
        0.28694999217987061
      ],
      "min": [
        -0.41877999901771545,
        -0.04050000011920929,
        -0.28352001309394836
      ],
      "type": "VEC3"
    },
    {
      "bufferView": 1,
      "byteOffset": 3037200,
      "componentType": 5126,
      "count": 194,
      "max": [
        1,
        1,
        1
      ],
      "min": [
        -1,
        -1,
        -1
      ],
      "type": "VEC3"
    },
    {
      "bufferView": 0,
      "byteOffset": 1398516,
      "componentType": 5125,
      "count": 336,
      "max": [
        193
      ],
      "min": [
        0
      ],
      "type": "SCALAR"
    },
    {
      "bufferView": 1,
      "byteOffset": 3039528,
      "componentType": 5126,
      "count": 3016,
      "max": [
        1,
        0.14647999405860901,
        1
      ],
      "min": [
        -1,
        -0.14647999405860901,
        -1
      ],
      "type": "VEC3"
    },
    {
      "bufferView": 1,
      "byteOffset": 3075720,
      "componentType": 5126,
      "count": 3016,
      "max": [
        1,
        1,
        1
      ],
      "min": [
        -1,
        -1,
        -1
      ],
      "type": "VEC3"
    },
    {
      "bufferView": 0,
      "byteOffset": 1399860,
      "componentType": 5125,
      "count": 11736,
      "max": [
        3015
      ],
      "min": [
        0
      ],
      "type": "SCALAR"
    },
    {
      "bufferView": 1,
      "byteOffset": 3111912,
      "componentType": 5126,
      "count": 195,
      "max": [
        -0.67233997583389282,
        0.1809999942779541,
        0.71215999126434326
      ],
      "min": [
        -1.0588500499725342,
        -0.33974000811576843,
        -0.72934001684188843
      ],
      "type": "VEC3"
    },
    {
      "bufferView": 1,
      "byteOffset": 3114252,
      "componentType": 5126,
      "count": 195,
      "max": [
        1,
        1,
        1
      ],
      "min": [
        -1,
        -1,
        -1
      ],
      "type": "VEC3"
    },
    {
      "bufferView": 0,
      "byteOffset": 1446804,
      "componentType": 5125,
      "count": 336,
      "max": [
        194
      ],
      "min": [
        0
      ],
      "type": "SCALAR"
    },
    {
      "bufferView": 1,
      "byteOffset": 3116592,
      "componentType": 5126,
      "count": 195,
      "max": [
        1.0601600408554077,
        0.1809999942779541,
        0.75473999977111816
      ],
      "min": [
        0.67364001274108887,
        -0.33974000811576843,
        -0.68676000833511353
      ],
      "type": "VEC3"
    },
    {
      "bufferView": 1,
      "byteOffset": 3118932,
      "componentType": 5126,
      "count": 195,
      "max": [
        1,
        1,
        1
      ],
      "min": [
        -1,
        -1,
        -1
      ],
      "type": "VEC3"
    },
    {
      "bufferView": 0,
      "byteOffset": 1448148,
      "componentType": 5125,
      "count": 336,
      "max": [
        194
      ],
      "min": [
        0
      ],
      "type": "SCALAR"
    }
  ],
  "asset": {
    "extras": {
      "author": "ICIC Jack (https://sketchfab.com/icic)",
      "license": "CC-BY-4.0 (http://creativecommons.org/licenses/by/4.0/)",
      "source": "https://sketchfab.com/models/5b4416accbba4e0b9d13d7ad2e04e6d2",
      "title": "LiFe Processor"
    },
    "generator": "Sketchfab-3.20.7",
    "version": "2.0"
  },
  "bufferViews": [
    {
      "buffer": 0,
      "byteLength": 1449492,
      "byteOffset": 0,
      "name": "floatBufferViews",
      "target": 34963
    },
    {
      "buffer": 0,
      "byteLength": 3121272,
      "byteOffset": 1449492,
      "byteStride": 12,
      "name": "floatBufferViews",
      "target": 34962
    }
  ],
  "buffers": [
    {
      "byteLength": 4570764,
      "uri": "scene.bin"
    }
  ],
  "materials": [
    {
      "doubleSided": true,
      "emissiveFactor": [
        0,
        0,
        0
      ],
      "name": "Material.001",
      "pbrMetallicRoughness": {
        "baseColorFactor": [
          0.48522270239999998,
          0.0073200493,
          0.65924126859999999,
          1
        ],
        "metallicFactor": 0,
        "roughnessFactor": 0.62
      }
    },
    {
      "doubleSided": false,
      "emissiveFactor": [
        0,
        0,
        0
      ],
      "name": "Material.003",
      "pbrMetallicRoughness": {
        "baseColorFactor": [
          0,
          0.67513953950000005,
          1,
          1
        ],
        "metallicFactor": 1,
        "roughnessFactor": 0.25
      }
    },
    {
      "doubleSided": true,
      "emissiveFactor": [
        0,
        0,
        0
      ],
      "name": "Material.002",
      "pbrMetallicRoughness": {
        "baseColorFactor": [
          1,
          0.81946105589999996,
          0.016789177999999998,
          1
        ],
        "metallicFactor": 1,
        "roughnessFactor": 0
      }
    }
  ],
  "meshes": [
    {
      "name": "Cube.008_Cube.009_0",
      "primitives": [
        {
          "attributes": {
            "NORMAL": 1,
            "POSITION": 0
          },
          "indices": 2,
          "material": 0,
          "mode": 4
        }
      ]
    },
    {
      "name": "Cube.007_Cube.008_0",
      "primitives": [
        {
          "attributes": {
            "NORMAL": 4,
            "POSITION": 3
          },
          "indices": 5,
          "material": 0,
          "mode": 4
        }
      ]
    },
    {
      "name": "Cube.005_Cube.006_0",
      "primitives": [
        {
          "attributes": {
            "NORMAL": 7,
            "POSITION": 6
          },
          "indices": 8,
          "material": 2,
          "mode": 4
        }
      ]
    },
    {
      "name": "Cube.005_Cube.006_0",
      "primitives": [
        {
          "attributes": {
            "NORMAL": 10,
            "POSITION": 9
          },
          "indices": 11,
          "material": 2,
          "mode": 4
        }
      ]
    },
    {
      "name": "Cube.003_Cube.004_0",
      "primitives": [
        {
          "attributes": {
            "NORMAL": 13,
            "POSITION": 12
          },
          "indices": 14,
          "material": 0,
          "mode": 4
        }
      ]
    },
    {
      "name": "Cube.003_0",
      "primitives": [
        {
          "attributes": {
            "NORMAL": 16,
            "POSITION": 15
          },
          "indices": 17,
          "material": 1,
          "mode": 4
        }
      ]
    },
    {
      "name": "Cube.002_0",
      "primitives": [
        {
          "attributes": {
            "NORMAL": 19,
            "POSITION": 18
          },
          "indices": 20,
          "material": 0,
          "mode": 4
        }
      ]
    },
    {
      "name": "Cube.001_0",
      "primitives": [
        {
          "attributes": {
            "NORMAL": 22,
            "POSITION": 21
          },
          "indices": 23,
          "material": 0,
          "mode": 4
        }
      ]
    }
  ],
  "nodes": [
    {
      "children": [
        1
      ],
      "name": "RootNode (gltf orientation matrix)",
      "rotation": [
        -0.70710678118654746,
        -0,
        -0,
        0.70710678118654757
      ]
    },
    {
      "children": [
        2
      ],
      "name": "RootNode (model correction matrix)"
    },
    {
      "children": [
        3,
        5,
        7,
        9,
        12,
        14,
        16,
        18
      ],
      "name": "Root"
    },
    {
      "children": [
        4
      ],
      "matrix": [
        -0.29086000000000006,
        0.95517000000000007,
        -0.05519000000000001,
        0,
        -0.77110000000000001,
        -0.19988000000000003,
        0.60452000000000006,
        0,
        0.56639000000000006,
        0.21839000000000003,
        0.7946700000000001,
        0,
        4.0762500000000008,
        1.00545,
        5.9038600000000008,
        1
      ],
      "name": "Lamp"
    },
    {
      "name": "Lamp"
    },
    {
      "children": [
        6
      ],
      "matrix": [
        1,
        0,
        0,
        0,
        0,
        -0,
        1,
        0,
        0,
        -1,
        -0,
        0,
        0,
        0,
        0,
        1
      ],
      "name": "Cube.008_Cube.009"
    },
    {
      "mesh": 0,
      "name": "Cube.008_Cube.009_0"
    },
    {
      "children": [
        8
      ],
      "matrix": [
        1,
        0,
        0,
        0,
        0,
        -0,
        1,
        0,
        0,
        -1,
        -0,
        0,
        0,
        0,
        0,
        1
      ],
      "name": "Cube.007_Cube.008"
    },
    {
      "mesh": 1,
      "name": "Cube.007_Cube.008_0"
    },
    {
      "children": [
        10,
        11
      ],
      "matrix": [
        1,
        0,
        0,
        0,
        0,
        -0,
        1,
        0,
        0,
        -1,
        -0,
        0,
        0,
        0,
        0,
        1
      ],
      "name": "Cube.005_Cube.006"
    },
    {
      "mesh": 2,
      "name": "Cube.005_Cube.006_0"
    },
    {
      "mesh": 3,
      "name": "Cube.005_Cube.006_0"
    },
    {
      "children": [
        13
      ],
      "matrix": [
        1,
        0,
        0,
        0,
        0,
        -0,
        1,
        0,
        0,
        -1,
        -0,
        0,
        0,
        0,
        0,
        1
      ],
      "name": "Cube.003_Cube.004"
    },
    {
      "mesh": 4,
      "name": "Cube.003_Cube.004_0"
    },
    {
      "children": [
        15
      ],
      "matrix": [
        1,
        0,
        0,
        0,
        0,
        -0,
        1,
        0,
        0,
        -1,
        -0,
        0,
        0,
        0,
        0,
        1
      ],
      "name": "Cube.003"
    },
    {
      "mesh": 5,
      "name": "Cube.003_0"
    },
    {
      "children": [
        17
      ],
      "matrix": [
        1,
        0,
        0,
        0,
        0,
        -0,
        1,
        0,
        0,
        -1,
        -0,
        0,
        0,
        0,
        0,
        1
      ],
      "name": "Cube.002"
    },
    {
      "mesh": 6,
      "name": "Cube.002_0"
    },
    {
      "children": [
        19
      ],
      "matrix": [
        1,
        0,
        0,
        0,
        0,
        -0,
        1,
        0,
        0,
        -1,
        -0,
        0,
        0,
        0,
        0,
        1
      ],
      "name": "Cube.001"
    },
    {
      "mesh": 7,
      "name": "Cube.001_0"
    }
  ],
  "scene": 0,
  "scenes": [
    {
      "name": "OSG_Scene",
      "nodes": [
        0
      ]
    }
  ]
}

