# Blender v2.79 (sub 0) OBJ File: ''
# www.blender.org
mtllib bottle_thumbnail.mtl
o small_health_poti_Cylinder.000
v 0.068992 -0.232871 -0.068992
v 0.091845 -0.198871 -0.091846
v 0.129889 -0.198871 0.000000
v 0.097569 -0.232871 0.000000
v 0.091845 -0.198871 0.091845
v 0.068992 -0.232871 0.068991
v -0.000000 -0.198871 0.129889
v -0.000000 -0.232871 0.097568
v -0.091845 -0.198871 0.091845
v -0.068991 -0.232871 0.068991
v -0.129889 -0.198871 0.000000
v -0.097569 -0.232871 0.000000
v -0.091845 -0.198871 -0.091846
v -0.068991 -0.232871 -0.068992
v -0.000000 -0.198871 -0.129889
v -0.000000 -0.232871 -0.097569
v -0.000000 -0.141612 -0.142437
v 0.100718 -0.141612 -0.100718
v -0.100718 -0.141612 -0.100718
v -0.142436 -0.141612 0.000000
v -0.100718 -0.141612 0.100718
v -0.000000 -0.141612 0.142436
v 0.100718 -0.141612 0.100718
v 0.142436 -0.141612 0.000000
v 0.086569 -0.074896 -0.086569
v 0.122427 -0.074896 0.000000
v 0.086569 -0.074896 0.086569
v -0.000000 -0.074896 0.122427
v -0.086569 -0.074896 0.086569
v -0.122427 -0.074896 0.000000
v -0.086569 -0.074896 -0.086569
v -0.000000 -0.074896 -0.122427
v -0.000000 0.004109 -0.069442
v 0.049103 0.004109 -0.049103
v -0.049103 0.004109 -0.049103
v -0.069442 0.004109 0.000000
v -0.049103 0.004109 0.049103
v -0.000000 0.004109 0.069442
v 0.049103 0.004109 0.049103
v 0.069442 0.004109 0.000000
v 0.038700 0.064325 -0.038700
v 0.054730 0.064325 0.000000
v 0.038700 0.064325 0.038700
v -0.000000 0.064325 0.054730
v -0.038700 0.064325 0.038700
v -0.054730 0.064325 0.000000
v -0.038700 0.064325 -0.038700
v -0.000000 0.064325 -0.054730
v -0.000000 0.136079 -0.054730
v 0.038700 0.136079 -0.038700
v -0.038700 0.136079 -0.038700
v -0.054730 0.136079 0.000000
v -0.038700 0.136079 0.038700
v -0.000000 0.136079 0.054730
v 0.038700 0.136079 0.038700
v 0.054730 0.136079 0.000000
v 0.038700 0.136079 -0.038700
v -0.000000 0.136079 -0.054730
v -0.000000 0.141244 -0.040765
v 0.028825 0.141244 -0.028826
v -0.038700 0.136079 -0.038700
v -0.028825 0.141244 -0.028826
v -0.054730 0.136079 0.000000
v -0.040765 0.141244 0.000000
v -0.038700 0.136079 0.038700
v -0.028825 0.141244 0.028825
v -0.000000 0.136079 0.054730
v -0.000000 0.141244 0.040765
v 0.038700 0.136079 0.038700
v 0.028825 0.141244 0.028825
v 0.054730 0.136079 0.000000
v 0.040765 0.141244 0.000000
v 0.068992 -0.253969 -0.068992
v -0.000000 -0.253969 -0.097569
v -0.068991 -0.253969 -0.068992
v -0.097569 -0.253969 0.000000
v -0.068991 -0.253969 0.068991
v -0.000000 -0.253969 0.097568
v 0.068992 -0.253969 0.068991
v 0.097569 -0.253969 0.000000
v -0.000000 -0.253969 0.000000
v 0.068992 -0.253969 -0.068992
v 0.097569 -0.253969 0.000000
v 0.068992 -0.253969 0.068991
v -0.000000 -0.253969 0.097568
v -0.068991 -0.253969 0.068991
v -0.097569 -0.253969 0.000000
v -0.068991 -0.253969 -0.068992
v -0.000000 -0.253969 -0.097569
v 0.032156 0.193415 -0.032156
v -0.000000 0.193415 -0.045476
v -0.032156 0.193415 -0.032156
v -0.045476 0.193415 0.000000
v 0.045476 0.193415 0.000000
v -0.032156 0.193415 0.032156
v 0.032156 0.193415 0.032156
v -0.000000 0.193415 0.045475
v -0.000000 0.141244 -0.040765
v -0.000000 0.178025 -0.052302
v 0.036983 0.178025 -0.036983
v 0.028825 0.141244 -0.028826
v -0.000000 0.193415 -0.045476
v 0.032156 0.193415 -0.032156
v -0.028825 0.141244 -0.028826
v -0.036983 0.178025 -0.036983
v -0.032156 0.193415 -0.032156
v -0.040765 0.141244 0.000000
v -0.052302 0.178025 0.000000
v -0.045476 0.193415 0.000000
v -0.028825 0.141244 0.028825
v -0.036983 0.178025 0.036983
v -0.032156 0.193415 0.032156
v -0.000000 0.141244 0.040765
v -0.000000 0.178025 0.052302
v -0.000000 0.193415 0.045475
v 0.028825 0.141244 0.028825
v 0.036983 0.178025 0.036983
v 0.032156 0.193415 0.032156
v 0.040765 0.141244 0.000000
v 0.052302 0.178025 0.000000
v 0.045476 0.193415 0.000000
vt 0.464792 0.072771
vt 0.464792 0.122977
vt 0.391577 0.122977
vt 0.391577 0.072771
vt 0.318363 0.122977
vt 0.318363 0.072771
vt 0.245149 0.122977
vt 0.245149 0.072771
vt 0.171934 0.122977
vt 0.171934 0.072771
vt 0.098720 0.122977
vt 0.098720 0.072771
vt 0.025505 0.122977
vt 0.025505 0.072771
vt 0.611221 0.072771
vt 0.611221 0.122977
vt 0.538006 0.122977
vt 0.538006 0.072771
vt 0.538006 0.207528
vt 0.464792 0.207528
vt 0.611221 0.207528
vt 0.098720 0.207528
vt 0.025505 0.207528
vt 0.171934 0.207528
vt 0.245149 0.207528
vt 0.318363 0.207528
vt 0.391577 0.207528
vt 0.464792 0.306043
vt 0.391577 0.306043
vt 0.318363 0.306043
vt 0.245149 0.306043
vt 0.171934 0.306043
vt 0.098720 0.306043
vt 0.025505 0.306043
vt 0.611221 0.306043
vt 0.538006 0.306043
vt 0.538006 0.422705
vt 0.464792 0.422705
vt 0.611221 0.422705
vt 0.098720 0.422705
vt 0.025505 0.422705
vt 0.171934 0.422705
vt 0.245149 0.422705
vt 0.318363 0.422705
vt 0.391577 0.422705
vt 0.433094 0.448732
vt 0.515428 0.448732
vt 0.516954 0.463704
vt 0.434620 0.463704
vt 0.350760 0.448732
vt 0.352286 0.463704
vt 0.268427 0.448732
vt 0.269953 0.463704
vt 0.186093 0.448732
vt 0.187619 0.463704
vt 0.103759 0.448732
vt 0.105285 0.463704
vt 0.021425 0.448732
vt 0.022951 0.463704
vt 0.597762 0.448732
vt 0.680096 0.448732
vt 0.681621 0.463704
vt 0.599288 0.463704
vt 0.599288 0.614277
vt 0.516954 0.614277
vt 0.681621 0.614277
vt 0.105285 0.614277
vt 0.022951 0.614277
vt 0.187619 0.614277
vt 0.269953 0.614277
vt 0.352286 0.614277
vt 0.434620 0.614277
vt 0.516954 0.614277
vt 0.599288 0.614277
vt 0.599288 0.625114
vt 0.516954 0.625114
vt 0.681621 0.614277
vt 0.681621 0.625114
vt 0.022951 0.614277
vt 0.105285 0.614277
vt 0.105285 0.625114
vt 0.022951 0.625114
vt 0.187619 0.614277
vt 0.187619 0.625114
vt 0.269953 0.614277
vt 0.269953 0.625114
vt 0.352286 0.614277
vt 0.352286 0.625114
vt 0.434620 0.614277
vt 0.434620 0.625114
vt 0.447222 0.788684
vt 0.397514 0.788684
vt 0.397514 0.759571
vt 0.447222 0.759571
vt 0.099267 0.788684
vt 0.049559 0.788684
vt 0.049559 0.759571
vt 0.099267 0.759571
vt 0.148975 0.788684
vt 0.148975 0.759571
vt 0.198683 0.788684
vt 0.198683 0.759571
vt 0.248391 0.788684
vt 0.248391 0.759571
vt 0.298099 0.788684
vt 0.298099 0.759571
vt 0.347806 0.788684
vt 0.347806 0.759571
vt 0.495453 0.759571
vt 0.397514 0.759571
vt 0.347806 0.759571
vt 0.298099 0.759571
vt 0.248391 0.759571
vt 0.097790 0.759571
vt 0.198683 0.759571
vt 0.148975 0.759571
vt 0.099267 0.759571
vt 0.049559 0.759571
vt 0.447222 0.759571
vt 0.783713 0.661033
vt 0.872116 0.749436
vt 0.872116 0.874458
vt 0.783712 0.962861
vt 0.658691 0.661033
vt 0.658691 0.962861
vt 0.570287 0.749436
vt 0.570287 0.874458
vt 0.397758 0.727786
vt 0.397758 0.859020
vt 0.348221 0.859020
vt 0.348221 0.727786
vt 0.397758 0.990255
vt 0.348221 0.990255
vt 0.447295 0.727786
vt 0.447295 0.859020
vt 0.447295 0.990255
vt 0.100536 0.727786
vt 0.100536 0.859020
vt 0.051000 0.859020
vt 0.051000 0.727786
vt 0.100537 0.990255
vt 0.051000 0.990255
vt 0.150073 0.727786
vt 0.150073 0.859020
vt 0.150073 0.990255
vt 0.199610 0.727786
vt 0.199610 0.859020
vt 0.199610 0.990255
vt 0.249147 0.727786
vt 0.249147 0.859020
vt 0.249147 0.990254
vt 0.298684 0.727786
vt 0.298684 0.859020
vt 0.298684 0.990255
vn 0.6461 -0.4063 -0.6461
vn 0.6338 -0.4435 -0.6338
vn 0.8963 -0.4435 0.0000
vn 0.9137 -0.4063 0.0000
vn 0.6338 -0.4435 0.6338
vn 0.6461 -0.4063 0.6461
vn -0.0000 -0.4435 0.8963
vn -0.0000 -0.4063 0.9137
vn -0.6338 -0.4435 0.6338
vn -0.6461 -0.4063 0.6461
vn -0.8963 -0.4435 0.0000
vn -0.9137 -0.4063 0.0000
vn -0.6338 -0.4435 -0.6338
vn -0.6461 -0.4063 -0.6461
vn -0.0000 -0.4435 -0.8963
vn -0.0000 -0.4063 -0.9137
vn 0.0000 0.0357 -0.9994
vn 0.7067 0.0357 -0.7067
vn -0.7067 0.0357 -0.7067
vn -0.9994 0.0357 0.0000
vn -0.7067 0.0357 0.7067
vn 0.0000 0.0357 0.9994
vn 0.7067 0.0357 0.7067
vn 0.9994 0.0357 0.0000
vn 0.6438 0.4134 -0.6438
vn 0.9105 0.4134 0.0000
vn 0.6438 0.4134 0.6438
vn 0.0000 0.4134 0.9105
vn -0.6438 0.4134 0.6438
vn -0.9105 0.4134 0.0000
vn -0.6438 0.4134 -0.6438
vn 0.0000 0.4134 -0.9105
vn 0.0000 0.4200 -0.9075
vn 0.6417 0.4200 -0.6417
vn -0.6417 0.4200 -0.6417
vn -0.9075 0.4200 0.0000
vn -0.6417 0.4200 0.6417
vn 0.0000 0.4200 0.9075
vn 0.6417 0.4200 0.6417
vn 0.9075 0.4200 0.0000
vn 0.7017 0.1231 -0.7017
vn 0.9924 0.1231 0.0000
vn 0.7017 0.1231 0.7017
vn 0.0000 0.1231 0.9924
vn -0.7017 0.1231 0.7017
vn -0.9924 0.1231 0.0000
vn -0.7017 0.1231 -0.7017
vn 0.0000 0.1231 -0.9924
vn 0.0000 0.0000 -1.0000
vn 0.7071 0.0000 -0.7071
vn -0.7071 0.0000 -0.7071
vn -1.0000 0.0000 0.0000
vn -0.7071 -0.0000 0.7071
vn 0.0000 -0.0000 1.0000
vn 0.7071 -0.0000 0.7071
vn 1.0000 -0.0000 0.0000
vn 0.2453 0.9379 -0.2453
vn 0.0000 0.9379 -0.3469
vn -0.2453 0.9379 -0.2453
vn -0.3469 0.9379 -0.0000
vn -0.2453 0.9379 0.2453
vn 0.0000 0.9379 0.3469
vn 0.2453 0.9379 0.2453
vn 0.3469 0.9379 -0.0000
vn 0.0000 -1.0000 -0.0000
vn 0.0000 1.0000 -0.0000
vn -0.0000 -0.2993 -0.9542
vn 0.0000 0.0524 -0.9986
vn 0.7061 0.0524 -0.7061
vn 0.6747 -0.2993 -0.6747
vn 0.0000 0.4055 -0.9141
vn 0.6464 0.4055 -0.6464
vn -0.6747 -0.2993 -0.6747
vn -0.7061 0.0524 -0.7061
vn -0.6464 0.4055 -0.6464
vn -0.9542 -0.2993 0.0000
vn -0.9986 0.0524 0.0000
vn -0.9141 0.4055 0.0000
vn -0.6747 -0.2993 0.6747
vn -0.7061 0.0524 0.7061
vn -0.6464 0.4055 0.6464
vn 0.0000 -0.2993 0.9542
vn -0.0000 0.0524 0.9986
vn -0.0000 0.4055 0.9141
vn 0.6747 -0.2993 0.6747
vn 0.7061 0.0524 0.7061
vn 0.6464 0.4055 0.6464
vn 0.9542 -0.2993 0.0000
vn 0.9986 0.0524 0.0000
vn 0.9141 0.4055 -0.0000
usemtl Material.002
s 1
f 1/1/1 2/2/2 3/3/3 4/4/4
f 4/4/4 3/3/3 5/5/5 6/6/6
f 6/6/6 5/5/5 7/7/7 8/8/8
f 8/8/8 7/7/7 9/9/9 10/10/10
f 10/10/10 9/9/9 11/11/11 12/12/12
f 12/12/12 11/11/11 13/13/13 14/14/14
f 14/15/14 13/16/13 15/17/15 16/18/16
f 2/2/2 1/1/1 16/18/16 15/17/15
f 2/2/2 15/17/15 17/19/17 18/20/18
f 15/17/15 13/16/13 19/21/19 17/19/17
f 13/13/13 11/11/11 20/22/20 19/23/19
f 11/11/11 9/9/9 21/24/21 20/22/20
f 9/9/9 7/7/7 22/25/22 21/24/21
f 7/7/7 5/5/5 23/26/23 22/25/22
f 5/5/5 3/3/3 24/27/24 23/26/23
f 3/3/3 2/2/2 18/20/18 24/27/24
f 24/27/24 18/20/18 25/28/25 26/29/26
f 23/26/23 24/27/24 26/29/26 27/30/27
f 22/25/22 23/26/23 27/30/27 28/31/28
f 21/24/21 22/25/22 28/31/28 29/32/29
f 20/22/20 21/24/21 29/32/29 30/33/30
f 19/23/19 20/22/20 30/33/30 31/34/31
f 17/19/17 19/21/19 31/35/31 32/36/32
f 18/20/18 17/19/17 32/36/32 25/28/25
f 25/28/25 32/36/32 33/37/33 34/38/34
f 32/36/32 31/35/31 35/39/35 33/37/33
f 31/34/31 30/33/30 36/40/36 35/41/35
f 30/33/30 29/32/29 37/42/37 36/40/36
f 29/32/29 28/31/28 38/43/38 37/42/37
f 28/31/28 27/30/27 39/44/39 38/43/38
f 27/30/27 26/29/26 40/45/40 39/44/39
f 26/29/26 25/28/25 34/38/34 40/45/40
f 40/46/40 34/47/34 41/48/41 42/49/42
f 39/50/39 40/46/40 42/49/42 43/51/43
f 38/52/38 39/50/39 43/51/43 44/53/44
f 37/54/37 38/52/38 44/53/44 45/55/45
f 36/56/36 37/54/37 45/55/45 46/57/46
f 35/58/35 36/56/36 46/57/46 47/59/47
f 33/60/33 35/61/35 47/62/47 48/63/48
f 34/47/34 33/60/33 48/63/48 41/48/41
f 41/48/41 48/63/48 49/64/49 50/65/50
f 48/63/48 47/62/47 51/66/51 49/64/49
f 47/59/47 46/57/46 52/67/52 51/68/51
f 46/57/46 45/55/45 53/69/53 52/67/52
f 45/55/45 44/53/44 54/70/54 53/69/53
f 44/53/44 43/51/43 55/71/55 54/70/54
f 43/51/43 42/49/42 56/72/56 55/71/55
f 42/49/42 41/48/41 50/65/50 56/72/56
f 57/73/57 58/74/58 59/75/58 60/76/57
f 58/74/58 61/77/59 62/78/59 59/75/58
f 61/79/59 63/80/60 64/81/60 62/82/59
f 63/80/60 65/83/61 66/84/61 64/81/60
f 65/83/61 67/85/62 68/86/62 66/84/61
f 67/85/62 69/87/63 70/88/63 68/86/62
f 69/87/63 71/89/64 72/90/64 70/88/63
f 71/89/64 57/73/57 60/76/57 72/90/64
usemtl Material.004_NONE.001
f 16/91/16 1/92/1 73/93/50 74/94/49
f 14/95/14 16/96/16 74/97/49 75/98/51
f 12/99/12 14/95/14 75/98/51 76/100/52
f 10/101/10 12/99/12 76/100/52 77/102/53
f 8/103/8 10/101/10 77/102/53 78/104/54
f 6/105/6 8/103/8 78/104/54 79/106/55
f 4/107/4 6/105/6 79/106/55 80/108/56
f 1/92/1 4/107/4 80/108/56 73/93/50
f 81/109/65 82/110/65 83/111/65
f 81/109/65 83/111/65 84/112/65
f 81/109/65 84/112/65 85/113/65
f 81/114/65 85/113/65 86/115/65
f 81/114/65 86/115/65 87/116/65
f 81/114/65 87/116/65 88/117/65
f 81/114/65 88/117/65 89/118/65
f 89/119/65 82/110/65 81/109/65
f 90/120/66 91/121/66 92/122/66
f 90/120/66 92/122/66 93/123/66
f 94/124/66 90/120/66 93/123/66
f 94/124/66 93/123/66 95/125/66
f 96/126/66 94/124/66 95/125/66
f 96/126/66 95/125/66 97/127/66
f 98/128/67 99/129/68 100/130/69 101/131/70
f 99/129/68 102/132/71 103/133/72 100/130/69
f 104/134/73 105/135/74 99/129/68 98/128/67
f 105/135/74 106/136/75 102/132/71 99/129/68
f 107/137/76 108/138/77 105/139/74 104/140/73
f 108/138/77 109/141/78 106/142/75 105/139/74
f 110/143/79 111/144/80 108/138/77 107/137/76
f 111/144/80 112/145/81 109/141/78 108/138/77
f 113/146/82 114/147/83 111/144/80 110/143/79
f 114/147/83 115/148/84 112/145/81 111/144/80
f 116/149/85 117/150/86 114/147/83 113/146/82
f 117/150/86 118/151/87 115/148/84 114/147/83
f 119/152/88 120/153/89 117/150/86 116/149/85
f 120/153/89 121/154/90 118/151/87 117/150/86
f 101/131/70 100/130/69 120/153/89 119/152/88
f 100/130/69 103/133/72 121/154/90 120/153/89
