# Blender v2.79 (sub 0) OBJ File: 'operator.blend'
# www.blender.org
mtllib plug.mtl
o output
v 0.005000 0.003510 -0.008660
v -0.005000 0.003510 -0.008660
v -0.010000 0.003510 -0.000000
v -0.005000 0.003510 0.008660
v 0.005000 0.003510 0.008660
v 0.010000 0.003510 0.000000
v 0.003949 0.003510 -0.006840
v -0.003949 0.003510 -0.006840
v -0.007898 0.003510 -0.000000
v -0.003949 0.003510 0.006840
v 0.003949 0.003510 0.006840
v 0.007898 0.003510 0.000000
v 0.003949 0.005417 -0.006840
v -0.003949 0.005417 -0.006840
v -0.007898 0.005417 -0.000000
v -0.003949 0.005417 0.006840
v 0.003949 0.005417 0.006840
v 0.007898 0.005417 0.000000
v 0.000000 0.005417 -0.000000
v 0.005000 0.000891 -0.008660
v 0.010000 0.000891 0.000000
v 0.005000 0.000891 0.008660
v -0.005000 0.000891 0.008660
v -0.010000 0.000891 -0.000000
v -0.005000 0.000891 -0.008660
v 0.004551 -0.000023 -0.007882
v 0.009101 -0.000023 -0.000000
v 0.004551 -0.000023 0.007882
v -0.004551 -0.000023 0.007882
v -0.009101 -0.000023 -0.000000
v -0.004551 -0.000023 -0.007882
v 0.003712 -0.000023 -0.006429
v 0.007423 -0.000023 -0.000000
v 0.003712 -0.000023 0.006429
v -0.003712 -0.000023 0.006429
v -0.007423 -0.000023 -0.000000
v -0.003712 -0.000023 -0.006429
v 0.003712 0.002927 -0.006429
v 0.007423 0.002927 0.000000
v 0.003712 0.002927 0.006429
v -0.003712 0.002927 0.006429
v -0.007423 0.002927 -0.000000
v -0.003712 0.002927 -0.006429
v 0.000000 0.002927 -0.000000
vt 0.907956 0.117272
vt 0.907956 0.347831
vt 0.865989 0.323602
vt 0.865989 0.141501
vt 0.708285 0.463111
vt 0.708285 0.414652
vt 0.508614 0.347831
vt 0.550581 0.323602
vt 0.508614 0.117272
vt 0.550581 0.141501
vt 0.708285 0.001992
vt 0.708285 0.050451
vt 0.196295 0.416456
vt 0.196295 0.598556
vt 0.152323 0.598556
vt 0.152323 0.416456
vt 0.246518 0.412510
vt 0.246518 0.254806
vt 0.290490 0.254806
vt 0.290490 0.412510
vt 0.246518 0.097102
vt 0.290490 0.097102
vt 0.202422 0.598557
vt 0.202422 0.416456
vt 0.246394 0.416456
vt 0.246394 0.598557
vt 0.196480 0.412509
vt 0.196480 0.254806
vt 0.240452 0.254806
vt 0.240452 0.412509
vt 0.196480 0.097102
vt 0.240452 0.097102
vt 0.421797 0.776520
vt 0.421797 0.874775
vt 0.336705 0.825648
vt 0.336705 0.923903
vt 0.251613 0.874776
vt 0.251613 0.776520
vt 0.336705 0.727392
vt 0.927697 0.600400
vt 0.927697 0.507986
vt 0.955648 0.507986
vt 0.955648 0.600400
vt 0.927697 0.692813
vt 0.955648 0.692813
vt 0.508614 0.998008
vt 0.508614 0.767448
vt 0.569007 0.767448
vt 0.569007 0.998008
vt 0.969329 0.600400
vt 0.969329 0.507986
vt 0.997280 0.507986
vt 0.997280 0.600400
vt 0.969329 0.692813
vt 0.997280 0.692813
vt 0.636640 0.767448
vt 0.636640 0.998008
vt 0.576248 0.998008
vt 0.576248 0.767448
vt 0.917951 0.600400
vt 0.917951 0.516293
vt 0.917951 0.684507
vt 0.914603 0.551750
vt 0.914603 0.658460
vt 0.906297 0.653664
vt 0.906297 0.556545
vt 0.959583 0.600400
vt 0.959583 0.516293
vt 0.959583 0.684507
vt 0.729777 0.658460
vt 0.729777 0.551750
vt 0.738083 0.556545
vt 0.738083 0.653664
vt 0.822190 0.507986
vt 0.822190 0.525890
vt 0.753588 0.565497
vt 0.890792 0.565497
vt 0.890792 0.644712
vt 0.822190 0.702223
vt 0.822190 0.684319
vt 0.753588 0.644712
vt 0.613759 0.763502
vt 0.613759 0.615280
vt 0.681781 0.615280
vt 0.681781 0.763502
vt 0.613759 0.467058
vt 0.681781 0.467058
vt 0.811910 0.813308
vt 0.811910 0.984461
vt 0.743888 0.984461
vt 0.743888 0.813308
vt 0.539671 0.763502
vt 0.539671 0.615280
vt 0.607693 0.615280
vt 0.607693 0.763502
vt 0.539671 0.467058
vt 0.607693 0.467058
vt 0.819036 0.984461
vt 0.819036 0.813308
vt 0.887058 0.813308
vt 0.887058 0.984461
vt 0.088388 0.795930
vt 0.168364 0.749756
vt 0.168364 0.842104
vt 0.248340 0.795930
vt 0.248340 0.888278
vt 0.168364 0.934452
vt 0.088388 0.888278
vn -0.0000 1.0000 0.0000
vn 0.0000 0.0000 -1.0000
vn -0.8660 0.0000 -0.5000
vn -0.8660 0.0000 0.5000
vn 0.0000 -0.0000 1.0000
vn 0.8660 0.0000 0.5000
vn 0.8660 -0.0000 -0.5000
vn 0.6591 -0.6487 -0.3805
vn 0.6591 -0.6487 0.3805
vn 0.0000 -0.6487 0.7611
vn -0.6591 -0.6487 0.3805
vn -0.6591 -0.6487 -0.3805
vn 0.0000 -0.6487 -0.7611
vn 0.0000 -1.0000 -0.0000
usemtl phong1.006
s 1
f 1/1/1 2/2/1 8/3/1 7/4/1
f 2/2/1 3/5/1 9/6/1 8/3/1
f 3/5/1 4/7/1 10/8/1 9/6/1
f 4/7/1 5/9/1 11/10/1 10/8/1
f 5/9/1 6/11/1 12/12/1 11/10/1
f 6/11/1 1/1/1 7/4/1 12/12/1
f 7/13/2 8/14/2 14/15/2 13/16/2
f 8/17/3 9/18/3 15/19/3 14/20/3
f 9/18/4 10/21/4 16/22/4 15/19/4
f 10/23/5 11/24/5 17/25/5 16/26/5
f 11/27/6 12/28/6 18/29/6 17/30/6
f 12/28/7 7/31/7 13/32/7 18/29/7
f 13/33/1 14/34/1 19/35/1
f 14/34/1 15/36/1 19/35/1
f 15/36/1 16/37/1 19/35/1
f 16/37/1 17/38/1 19/35/1
f 17/38/1 18/39/1 19/35/1
f 18/39/1 13/33/1 19/35/1
f 21/40/7 20/41/7 1/42/7 6/43/7
f 22/44/6 21/40/6 6/43/6 5/45/6
f 23/46/5 22/47/5 5/48/5 4/49/5
f 24/50/4 23/51/4 4/52/4 3/53/4
f 25/54/3 24/50/3 3/53/3 2/55/3
f 20/56/2 25/57/2 2/58/2 1/59/2
f 20/41/8 21/40/8 27/60/8 26/61/8
f 21/40/9 22/44/9 28/62/9 27/60/9
f 22/63/10 23/64/10 29/65/10 28/66/10
f 23/51/11 24/50/11 30/67/11 29/68/11
f 24/50/12 25/54/12 31/69/12 30/67/12
f 25/70/13 20/71/13 26/72/13 31/73/13
f 26/72/14 27/74/14 33/75/14 32/76/14
f 27/74/14 28/66/14 34/77/14 33/75/14
f 28/66/14 29/65/14 35/78/14 34/77/14
f 29/65/14 30/79/14 36/80/14 35/78/14
f 30/79/14 31/73/14 37/81/14 36/80/14
f 31/73/14 26/72/14 32/76/14 37/81/14
f 32/82/4 33/83/4 39/84/4 38/85/4
f 33/83/3 34/86/3 40/87/3 39/84/3
f 34/88/2 35/89/2 41/90/2 40/91/2
f 35/92/7 36/93/7 42/94/7 41/95/7
f 36/93/6 37/96/6 43/97/6 42/94/6
f 37/98/5 32/99/5 38/100/5 43/101/5
f 38/102/14 39/103/14 44/104/14
f 39/103/14 40/105/14 44/104/14
f 40/105/14 41/106/14 44/104/14
f 41/106/14 42/107/14 44/104/14
f 42/107/14 43/108/14 44/104/14
f 43/108/14 38/102/14 44/104/14
