# Blender v2.79 (sub 0) OBJ File: 'slider.blend'
# www.blender.org
mtllib rail.mtl
o rail
v 0.300000 -0.050000 -0.008333
v 0.300000 -0.050000 -0.041667
v 0.300000 -0.016667 0.025000
v 0.300000 -0.016667 -0.008333
v 0.300000 -0.016667 -0.041667
v 0.300000 -0.016667 -0.075000
v 0.300000 0.016667 0.025000
v 0.300000 0.016667 -0.008333
v 0.300000 0.016667 -0.041667
v 0.300000 0.016667 -0.075000
v 0.300000 0.050000 -0.008333
v 0.300000 0.050000 -0.041667
v -0.300000 0.050000 -0.008333
v -0.300000 0.050000 -0.041667
v -0.300000 0.016667 0.025000
v -0.300000 0.016667 -0.008333
v -0.300000 0.016667 -0.041667
v -0.300000 0.016667 -0.075000
v -0.300000 -0.016667 0.025000
v -0.300000 -0.016667 -0.008333
v -0.300000 -0.016667 -0.041667
v -0.300000 -0.016667 -0.075000
v -0.300000 -0.050000 -0.008333
v -0.300000 -0.050000 -0.041667
vt 0.458333 0.000000
vt 0.541667 0.000000
vt 0.541667 0.083333
vt 0.458333 0.083333
vt 0.375000 0.083333
vt 0.458333 0.166667
vt 0.375000 0.166667
vt 0.541667 0.166667
vt 0.625000 0.083333
vt 0.625000 0.166667
vt 0.541667 0.250000
vt 0.458333 0.250000
vt 0.541667 0.500000
vt 0.458333 0.500000
vt 0.541667 0.583333
vt 0.458333 0.583333
vt 0.375000 0.583333
vt 0.458333 0.666667
vt 0.375000 0.666667
vt 0.541667 0.666667
vt 0.625000 0.583333
vt 0.625000 0.666667
vt 0.541667 0.750000
vt 0.458333 0.750000
vt 0.541667 1.000000
vt 0.458333 1.000000
vt 0.875000 0.083333
vt 0.875000 0.166667
vt 0.125000 0.083333
vt 0.125000 0.166667
vn 1.0000 0.0000 0.0000
vn 0.0000 1.0000 0.0000
vn -1.0000 0.0000 0.0000
vn -0.0000 -1.0000 0.0000
vn -0.0000 0.0000 -1.0000
vn 0.0000 0.0000 1.0000
usemtl phong1.002
s 1
f 1/1/1 2/2/1 5/3/1 4/4/1
f 3/5/1 4/4/1 8/6/1 7/7/1
f 4/4/1 5/3/1 9/8/1 8/6/1
f 5/3/1 6/9/1 10/10/1 9/8/1
f 8/6/1 9/8/1 12/11/1 11/12/1
f 11/12/2 12/11/2 14/13/2 13/14/2
f 13/14/3 14/13/3 17/15/3 16/16/3
f 15/17/3 16/16/3 20/18/3 19/19/3
f 16/16/3 17/15/3 21/20/3 20/18/3
f 17/15/3 18/21/3 22/22/3 21/20/3
f 20/18/3 21/20/3 24/23/3 23/24/3
f 23/24/4 24/23/4 2/25/4 1/26/4
f 6/9/5 22/27/5 18/28/5 10/10/5
f 19/29/6 3/5/6 7/7/6 15/30/6
f 8/6/2 16/16/2 15/30/2 7/7/2
f 9/8/5 17/15/5 14/13/5 12/11/5
f 6/9/4 5/3/4 21/20/4 22/27/4
f 4/4/6 20/18/6 23/24/6 1/1/6
f 8/6/6 11/12/6 13/14/6 16/16/6
f 10/10/2 18/21/2 17/15/2 9/8/2
f 21/20/5 5/3/5 2/25/5 24/23/5
f 4/4/4 3/5/4 19/19/4 20/18/4
