# Blender v2.79 (sub 0) OBJ File: 'slider.blend'
# www.blender.org
mtllib slider.mtl
o slider
v -0.045115 0.042141 -0.016595
v -0.045115 -0.042379 -0.011895
v -0.032580 0.042141 0.042741
v -0.032580 -0.042379 0.042741
v 0.032351 0.042141 0.042741
v 0.032351 -0.042379 0.042741
v 0.044885 0.042141 -0.011895
v 0.044885 -0.042379 -0.011895
v 0.038727 -0.060914 -0.011895
v -0.038957 -0.060914 -0.011895
v 0.027908 -0.060914 0.036732
v -0.028138 -0.060914 0.036732
v 0.038727 0.060675 -0.011895
v -0.038957 0.060675 -0.016595
v -0.028138 0.060675 0.036732
v 0.027908 0.060675 0.036732
v 0.028465 -0.074832 -0.003598
v -0.032261 -0.076660 -0.003583
v 0.025484 -0.069378 0.023018
v -0.025713 -0.069378 0.023018
v 0.032032 0.076422 -0.003595
v -0.028694 0.074594 -0.003580
v -0.025713 0.069140 0.023018
v 0.025484 0.069140 0.023018
v 0.031261 0.036154 -0.027164
v 0.030890 -0.036479 -0.027174
v -0.030625 -0.036557 -0.026816
v -0.030235 0.036076 -0.030844
v 0.026520 -0.055461 -0.026319
v -0.026578 -0.055528 -0.026010
v -0.026020 0.056061 -0.029639
v 0.027059 0.056128 -0.025910
v 0.026467 -0.071607 -0.018349
v -0.026631 -0.071675 -0.018040
v -0.026227 0.072840 -0.017239
v 0.026871 0.072907 -0.017548
vt 0.375000 0.000000
vt 0.625000 0.000000
vt 0.625000 0.250000
vt 0.375000 0.250000
vt 0.625000 0.500000
vt 0.375000 0.500000
vt 0.625000 0.750000
vt 0.375000 0.750000
vt 0.375000 0.750000
vt 0.625000 0.750000
vt 0.625000 1.000000
vt 0.375000 1.000000
vt 0.625000 0.000000
vt 0.875000 0.000000
vt 0.875000 0.250000
vt 0.625000 0.250000
vt 0.125000 0.000000
vt 0.375000 0.000000
vt 0.375000 0.250000
vt 0.125000 0.250000
vt 0.625000 0.000000
vt 0.875000 0.000000
vt 0.875000 0.000000
vt 0.625000 0.000000
vt 0.875000 0.000000
vt 0.875000 0.250000
vt 0.875000 0.250000
vt 0.875000 0.000000
vt 0.625000 0.250000
vt 0.625000 0.000000
vt 0.125000 0.000000
vt 0.375000 0.000000
vt 0.375000 0.000000
vt 0.125000 0.000000
vt 0.375000 0.250000
vt 0.375000 0.000000
vt 0.125000 0.250000
vt 0.125000 0.250000
vt 0.125000 0.000000
vt 0.125000 0.000000
vt 0.875000 0.000000
vt 0.625000 0.000000
vt 0.375000 0.000000
vt 0.125000 0.000000
vt 0.625000 1.000000
vt 0.375000 1.000000
vn -0.9985 0.0549 -0.0068
vn -0.9984 -0.0556 0.0126
vn -0.9757 -0.0401 0.2155
vn -0.9757 0.0531 0.2127
vn -0.0000 0.0483 0.9988
vn -0.0000 -0.0483 0.9988
vn 0.9739 0.0467 0.2220
vn 0.9737 -0.0468 0.2229
vn 0.9983 -0.0563 0.0128
vn 0.9983 0.0557 0.0140
vn 0.0339 -0.0114 -0.9994
vn 0.0214 -0.0305 -0.9993
vn 0.0213 -0.0306 -0.9993
vn 0.0338 -0.0116 -0.9994
vn 0.0162 -0.9978 0.0641
vn 0.0162 -0.9984 0.0546
vn 0.0102 -0.9392 0.3433
vn 0.0105 -0.9410 0.3383
vn -0.0159 0.9727 0.2317
vn -0.0102 0.9392 0.3433
vn -0.0104 0.9410 0.3384
vn -0.0058 -0.0436 -0.9990
vn 0.9193 -0.3340 0.2082
vn 0.9224 -0.3808 -0.0650
vn -0.0000 -0.3084 0.9513
vn -0.9319 -0.3532 -0.0823
vn -0.9247 -0.3138 0.2154
vn 0.0643 0.0613 -0.9960
vn -0.9253 0.3268 0.1924
vn -0.9167 0.3893 -0.0903
vn -0.0000 0.3084 0.9513
vn 0.9338 0.3505 -0.0720
vn 0.9247 0.3138 0.2154
vn -0.0047 -0.4426 -0.8967
vn 0.8336 -0.5186 0.1905
vn 0.8409 -0.5397 0.0392
vn -0.0000 -0.8509 0.5253
vn -0.9011 -0.4303 0.0539
vn -0.8887 -0.3889 0.2428
vn 0.0267 0.5262 -0.8500
vn -0.8532 0.4893 0.1807
vn -0.8431 0.5350 0.0553
vn -0.0000 0.8509 0.5253
vn 0.9024 0.4275 0.0546
vn 0.8887 0.3890 0.2428
vn 0.7361 -0.0350 -0.6759
vn 0.7377 0.0312 -0.6744
vn -0.6980 -0.0001 -0.7161
vn -0.7017 -0.0629 -0.7096
vn 0.7042 -0.2934 -0.6466
vn -0.6841 -0.2687 -0.6781
vn -0.6525 0.3141 -0.6897
vn 0.7087 0.2759 -0.6493
vn 0.7044 -0.5092 -0.4945
vn 0.0153 -0.9631 -0.2688
vn -0.6782 -0.4413 -0.5877
vn -0.6117 0.6137 -0.4992
vn -0.0169 0.9824 -0.1858
vn 0.7113 0.4338 -0.5531
usemtl phong1.001
s 1
f 1/1/1 2/2/2 4/3/3 3/4/4
f 3/4/5 4/3/6 6/5/6 5/6/5
f 5/6/7 6/5/8 8/7/9 7/8/10
f 25/9/11 26/10/12 27/11/13 28/12/14
f 18/13/15 17/14/16 19/15/17 20/16/18
f 21/17/19 22/18/19 23/19/20 24/20/21
f 27/21/13 26/22/12 29/23/22 30/24/22
f 8/25/9 6/26/8 11/27/23 9/28/24
f 6/26/6 4/3/6 12/29/25 11/27/25
f 4/3/3 2/2/2 10/30/26 12/29/27
f 25/31/11 28/32/14 31/33/28 32/34/28
f 1/1/1 3/4/4 15/35/29 14/36/30
f 3/4/5 5/37/5 16/38/31 15/35/31
f 5/37/7 7/39/10 13/40/32 16/38/33
f 30/24/34 29/23/34 33/41/34 34/42/34
f 9/28/24 11/27/23 19/15/35 17/14/36
f 11/27/37 12/29/37 20/16/18 19/15/17
f 12/29/27 10/30/26 18/13/38 20/16/39
f 32/34/40 31/33/40 35/43/40 36/44/40
f 14/36/30 15/35/29 23/19/41 22/18/42
f 15/35/43 16/38/43 24/20/21 23/19/20
f 16/38/33 13/40/32 21/17/44 24/20/45
f 7/8/10 8/7/9 26/10/46 25/9/47
f 2/45/2 1/46/1 28/12/48 27/11/49
f 8/25/9 9/28/24 29/23/50 26/22/46
f 10/30/26 2/2/2 27/21/49 30/24/51
f 1/1/1 14/36/30 31/33/52 28/32/48
f 13/40/32 7/39/10 25/31/47 32/34/53
f 9/28/24 17/14/36 33/41/54 29/23/50
f 17/14/16 18/13/15 34/42/55 33/41/55
f 18/13/38 10/30/26 30/24/51 34/42/56
f 14/36/30 22/18/42 35/43/57 31/33/52
f 22/18/58 21/17/58 36/44/58 35/43/58
f 21/17/44 13/40/32 32/34/53 36/44/59
