{
  "accessors": [
    {
      "bufferView": 2,
      "componentType": 5126,
      "count": 9351,
      "max": [
        0.06481499969959259,
        -0.023972999304533005,
        0.013945000246167183
      ],
      "min": [
        -0.044780001044273376,
        -0.13857899606227875,
        -0.080107003450393677
      ],
      "type": "VEC3"
    },
    {
      "bufferView": 2,
      "byteOffset": 112212,
      "componentType": 5126,
      "count": 9351,
      "max": [
        1,
        0.99999064207077026,
        0.99998825788497925
      ],
      "min": [
        -1,
        -0.99953323602676392,
        -0.99969935417175293
      ],
      "type": "VEC3"
    },
    {
      "bufferView": 3,
      "componentType": 5126,
      "count": 9351,
      "max": [
        1,
        0.99998527765274048,
        0.99988573789596558,
        1
      ],
      "min": [
        -1,
        -0.99998366832733154,
        -0.99998605251312256,
        -1
      ],
      "type": "VEC4"
    },
    {
      "bufferView": 1,
      "componentType": 5126,
      "count": 9351,
      "max": [
        0.98859000205993652,
        0.98880898952484131
      ],
      "min": [
        0.0058679999783635139,
        0.004838000051677227
      ],
      "type": "VEC2"
    },
    {
      "bufferView": 0,
      "componentType": 5125,
      "count": 39669,
      "max": [
        9350
      ],
      "min": [
        0
      ],
      "type": "SCALAR"
    }
  ],
  "asset": {
    "extras": {
      "author": "djvivid (https://sketchfab.com/djvivid)",
      "license": "CC-BY-4.0 (http://creativecommons.org/licenses/by/4.0/)",
      "source": "https://sketchfab.com/models/97afd97da756445daf895cc439c46ed6",
      "title": "Andrews Oculus Controller Right"
    },
    "generator": "Sketchfab-3.32.3",
    "version": "2.0"
  },
  "bufferViews": [
    {
      "buffer": 0,
      "byteLength": 158676,
      "byteOffset": 0,
      "name": "floatBufferViews",
      "target": 34963
    },
    {
      "buffer": 0,
      "byteLength": 74808,
      "byteOffset": 158676,
      "byteStride": 8,
      "name": "floatBufferViews",
      "target": 34962
    },
    {
      "buffer": 0,
      "byteLength": 224424,
      "byteOffset": 233484,
      "byteStride": 12,
      "name": "floatBufferViews",
      "target": 34962
    },
    {
      "buffer": 0,
      "byteLength": 149616,
      "byteOffset": 457908,
      "byteStride": 16,
      "name": "floatBufferViews",
      "target": 34962
    }
  ],
  "buffers": [
    {
      "byteLength": 607524,
      "uri": "scene.bin"
    }
  ],
  "images": [
    {
      "uri": "textures/external_contoller_01blinn1SG_baseColor.png"
    }
  ],
  "materials": [
    {
      "doubleSided": true,
      "emissiveFactor": [
        0,
        0,
        0
      ],
      "name": "external_contoller_01blinn1SG",
      "pbrMetallicRoughness": {
        "baseColorFactor": [
          1,
          1,
          1,
          1
        ],
        "baseColorTexture": {
          "index": 0,
          "texCoord": 0
        },
        "metallicFactor": 0,
        "roughnessFactor": 1
      }
    }
  ],
  "meshes": [
    {
      "primitives": [
        {
          "attributes": {
            "NORMAL": 1,
            "POSITION": 0,
            "TANGENT": 2,
            "TEXCOORD_0": 3
          },
          "indices": 4,
          "material": 0,
          "mode": 4
        }
      ]
    }
  ],
  "nodes": [
    {
      "children": [
        1
      ],
      "name": "RootNode (gltf orientation matrix)",
      "rotation": [
        -0.70710678118654746,
        -0,
        -0,
        0.70710678118654757
      ]
    },
    {
      "children": [
        2
      ],
      "name": "RootNode (model correction matrix)"
    },
    {
      "children": [
        3
      ],
      "name": "oculus_cv1_controller_right.obj.cleaner.materialmerger.gles"
    },
    {
      "mesh": 0,
      "name": ""
    }
  ],
  "samplers": [
    {
      "magFilter": 9729,
      "minFilter": 9987,
      "wrapS": 10497,
      "wrapT": 10497
    }
  ],
  "scene": 0,
  "scenes": [
    {
      "name": "OSG_Scene",
      "nodes": [
        0
      ]
    }
  ],
  "textures": [
    {
      "sampler": 0,
      "source": 0
    }
  ]
}

