# Blender v2.79 (sub 0) OBJ File: 'untitled.blend'
# www.blender.org
mtllib switch_base.mtl
o pCube1_Untitled.001
v -0.072500 -0.070000 -0.025000
v 0.072500 -0.070000 -0.025000
v -0.072500 0.070000 -0.025000
v 0.072500 0.070000 -0.025000
v -0.059701 -0.047679 0.025000
v 0.059701 -0.047679 0.025000
v 0.059701 0.047679 0.025000
v -0.059701 0.047679 0.025000
v -0.054629 -0.044543 0.023519
v 0.054629 -0.044543 0.023519
v 0.054629 0.044543 0.023520
v -0.054629 0.044543 0.023520
v -0.054629 -0.044543 0.011165
v 0.054629 -0.044543 0.011165
v 0.054629 0.044543 0.011165
v -0.054629 0.044543 0.011165
v -0.072500 -0.070000 0.019786
v -0.067286 -0.064786 0.025000
v 0.072500 -0.070000 0.019786
v 0.067286 -0.064786 0.025000
v -0.072500 0.070000 0.019786
v -0.067286 0.064786 0.025000
v 0.072500 0.070000 0.019786
v 0.067286 0.064786 0.025000
vt 0.375000 0.250000
vt 0.625000 0.250000
vt 0.625000 0.500000
vt 0.375000 0.500000
vt 0.375000 0.750000
vt 0.625000 0.750000
vt 0.625000 1.000000
vt 0.375000 1.000000
vt 0.375000 0.250000
vt 0.625000 0.250000
vt 0.625000 0.250000
vt 0.375000 0.250000
vt 0.625000 0.500000
vt 0.625000 0.500000
vt 0.375000 0.500000
vt 0.375000 0.500000
vt 0.375000 0.223929
vt 0.378835 0.250000
vt 0.134311 0.250000
vt 0.125000 0.223929
vt 0.625000 0.223929
vt 0.620343 0.250000
vt 0.634311 0.250000
vt 0.875000 0.223929
vt 0.865689 0.250000
vt 0.375000 0.526071
vt 0.379657 0.500000
vt 0.621165 0.500000
vt 0.625000 0.526071
vt 0.375000 0.000000
vt 0.625000 0.000000
vt 0.875000 0.000000
vt 0.125000 0.000000
vn 0.0000 -0.0000 1.0000
vn 0.0000 0.0000 -1.0000
vn 0.0192 0.0138 0.9997
vn -0.0192 0.0138 0.9997
vn -0.1463 0.2189 0.9647
vn 0.1463 0.2189 0.9647
vn -0.0192 -0.0138 0.9997
vn -0.1463 -0.2189 0.9647
vn 0.0192 -0.0138 0.9997
vn 0.1463 -0.2189 0.9647
vn 0.0000 1.0000 0.0000
vn -1.0000 -0.0000 0.0000
vn 0.0000 -1.0000 -0.0000
vn 1.0000 -0.0000 0.0000
vn -0.7071 -0.0000 0.7071
vn 0.0000 -0.7071 0.7071
vn 0.7071 -0.0000 0.7071
vn 0.0000 0.7071 0.7071
usemtl phong1
s 1
f 13/1/1 14/2/1 15/3/1 16/4/1
f 3/5/2 4/6/2 2/7/2 1/8/2
f 5/9/3 6/10/4 10/11/5 9/12/6
f 6/10/4 7/13/7 11/14/8 10/11/5
f 7/13/7 8/15/9 12/16/10 11/14/8
f 8/15/9 5/9/3 9/12/6 12/16/10
f 9/12/11 10/11/11 14/2/11 13/1/11
f 10/11/12 11/14/12 15/3/12 14/2/12
f 11/14/13 12/16/13 16/4/13 15/3/13
f 12/16/14 9/12/14 13/1/14 16/4/14
f 17/17/15 18/18/15 22/19/15 21/20/15
f 18/18/16 17/17/16 19/21/16 20/22/16
f 20/23/17 19/21/17 23/24/17 24/25/17
f 21/26/18 22/27/18 24/28/18 23/29/18
f 1/30/13 2/31/13 19/21/13 17/17/13
f 21/26/11 23/29/11 4/6/11 3/5/11
f 2/31/14 4/32/14 23/24/14 19/21/14
f 3/33/12 1/30/12 17/17/12 21/20/12
f 18/18/1 20/22/1 6/10/4 5/9/3
f 20/22/1 24/28/1 7/13/7 6/10/4
f 24/28/1 22/27/1 8/15/9 7/13/7
f 22/27/1 18/18/1 5/9/3 8/15/9
