# 3ds Max Wavefront OBJ Exporter v0.97b - (c)2007 guruware
# File Created: 11.04.2015 15:38:48

mtllib arrow.mtl

#
# object Box01
#

v  -20.0597 0.0000 75.9380
v  -20.0597 0.0000 29.9856
v  9.9950 0.0000 30.0206
v  10.0204 0.0000 75.9380
v  -30.3076 0.0000 29.9469
v  -5.3096 0.0000 -0.1137
v  20.2119 0.0000 29.9469
v  -20.0597 17.0799 75.9380
v  10.0204 17.0799 75.9380
v  9.9950 17.0799 30.0206
v  -20.0597 17.0799 29.9856
v  -5.3096 17.0799 -0.1137
v  -30.3076 17.0799 29.9469
v  20.2119 17.0799 29.9469
# 14 vertices

vn 0.0000 -1.0000 -0.0000
vn 0.0000 1.0000 -0.0000
vn 0.0000 0.0000 1.0000
vn 1.0000 0.0000 -0.0006
vn 0.7098 0.0000 0.7044
vn 0.0072 0.0000 1.0000
vn 0.7623 0.0000 -0.6472
vn -0.0051 0.0000 -1.0000
vn -0.7689 0.0000 -0.6394
vn -0.0038 0.0000 1.0000
vn -0.7084 0.0000 0.7058
vn -1.0000 0.0000 -0.0000
# 12 vertex normals

vt 1.0000 0.0000 0.0000
vt 1.0000 0.5000 0.0000
vt 0.5000 0.5000 0.0000
vt 0.5000 0.0000 0.0000
vt 1.0000 1.0000 0.0000
vt 0.5000 1.0000 0.0000
vt 0.0000 1.0000 0.0000
vt 0.0000 0.0000 0.0000
vt 0.0000 0.5000 0.0000
# 9 texture coords

g Box01
usemtl Material__20
s 2
f 1/1/1 2/2/1 3/3/1 4/4/1 
f 2/2/1 5/5/1 6/6/1 3/3/1 
f 3/3/1 6/6/1 7/7/1 
s 4
f 8/8/2 9/4/2 10/3/2 11/9/2 
f 11/9/2 10/3/2 12/6/2 13/7/2 
f 14/5/2 12/6/2 10/3/2 
s 8
f 1/8/3 4/4/3 9/6/3 8/7/3 
s 16
f 4/8/4 3/4/5 10/6/5 9/7/4 
f 3/4/5 7/1/6 14/5/6 10/6/5 
s 32
f 7/8/7 6/4/8 12/6/8 14/7/7 
f 6/4/8 5/1/9 13/5/9 12/6/8 
s 64
f 5/8/10 2/4/11 11/6/11 13/7/10 
f 2/4/11 1/1/12 8/5/12 11/6/11 
# 11 polygons - 2 triangles

